<svg width="15" height="22" viewBox="0 0 15 22" fill="none" xmlns="http://www.w3.org/2000/svg">
<path d="M2.8125 5.49995V3.29994C2.81251 2.6629 2.96967 2.03949 3.265 1.50494C3.56033 0.970398 3.98121 0.547576 4.47683 0.287514C4.97245 0.0274514 5.52164 -0.0587337 6.05809 0.0393617C6.59454 0.137457 7.09533 0.415639 7.5 0.84033C7.90467 0.415639 8.40546 0.137457 8.94191 0.0393617C9.47836 -0.0587337 10.0275 0.0274514 10.5232 0.287514C11.0188 0.547576 11.4397 0.970398 11.735 1.50494C12.0303 2.03949 12.1875 2.6629 12.1875 3.29994V5.49995H13.5938C13.9667 5.49995 14.3244 5.67378 14.5881 5.98322C14.8518 6.29266 15 6.71234 15 7.14995V18.1555C15 19.1751 14.6548 20.153 14.0403 20.874C13.4258 21.595 12.5924 22 11.7234 22H3.75C2.75544 22 1.80161 21.5364 1.09835 20.7113C0.395088 19.8861 0 18.7669 0 17.6V7.14995C0 6.71234 0.148158 6.29266 0.411881 5.98322C0.675604 5.67378 1.03329 5.49995 1.40625 5.49995H2.8125ZM9.03281 20.35C8.65037 19.7063 8.44582 18.9402 8.44688 18.1555V7.14995H1.40625V17.6C1.40625 17.9611 1.46687 18.3187 1.58466 18.6524C1.70244 18.986 1.87508 19.2892 2.09272 19.5445C2.31036 19.7999 2.56873 20.0025 2.85309 20.1407C3.13744 20.2789 3.44221 20.35 3.75 20.35H9.03281ZM7.03125 5.49995V3.29994C7.03125 2.86233 6.88309 2.44264 6.61937 2.13321C6.35565 1.82377 5.99796 1.64993 5.625 1.64993C5.25204 1.64993 4.89435 1.82377 4.63063 2.13321C4.36691 2.44264 4.21875 2.86233 4.21875 3.29994V5.49995H7.03125ZM8.4375 5.49995H10.7812V3.29994C10.7813 2.96029 10.692 2.62892 10.5255 2.35104C10.3591 2.07315 10.1236 1.86231 9.85125 1.74728C9.57889 1.63226 9.28291 1.61865 9.00372 1.70833C8.72452 1.798 8.47571 1.98658 8.29125 2.24834C8.38594 2.57834 8.4375 2.93254 8.4375 3.29994V5.49995ZM9.85313 18.1555C9.85313 18.7375 10.0502 19.2957 10.4009 19.7072C10.7517 20.1188 11.2274 20.35 11.7234 20.35C12.2195 20.35 12.6952 20.1188 13.0459 19.7072C13.3967 19.2957 13.5938 18.7375 13.5938 18.1555V7.14995H9.85313V18.1555Z" fill="black"/>
</svg>
