<svg width="15" height="23" viewBox="0 0 15 23" fill="none" xmlns="http://www.w3.org/2000/svg">
<path d="M2.50008 5.66666V3.54168C2.50008 3.05435 2.58133 2.59677 2.74383 2.16894C2.90633 1.73402 3.13133 1.35719 3.41758 1.03986C3.69758 0.715447 4.03007 0.460448 4.41382 0.276283C4.79132 0.0921176 5.19507 3.49889e-05 5.62506 3.49889e-05C5.97631 3.49889e-05 6.31131 0.0623677 6.63131 0.18845C6.9513 0.314533 7.2438 0.491615 7.51005 0.719697C8.04444 0.252789 8.70028 -0.000285746 9.37504 3.49889e-05C9.99095 -0.0030771 10.5938 0.201479 11.1068 0.587689C11.6199 0.9739 12.02 1.52431 12.2563 2.16894C12.4188 2.59677 12.5 3.05435 12.5 3.54168V5.66666H13.75C14.0815 5.66666 14.3995 5.81592 14.6339 6.08159C14.8683 6.34727 15 6.7076 15 7.08332V18.4166C15 19.0073 14.9025 19.5598 14.7075 20.0769C14.5125 20.5855 14.245 21.036 13.9063 21.427C13.6813 21.6763 13.435 21.8916 13.1638 22.073L12.4263 21.7103L11.8075 21.3972L11.5425 21.2315L11.265 20.9977L10.9638 20.6974L10.6288 20.2922C10.2193 19.7783 9.99491 19.109 10 18.4166V5.66666H11.25V3.54168C11.25 3.24701 11.2013 2.96935 11.1038 2.71152C10.9623 2.32502 10.7221 1.99525 10.4141 1.76454C10.1061 1.53383 9.74424 1.4127 9.37504 1.41669C8.99129 1.41669 8.64629 1.53852 8.34004 1.78219C8.60944 2.31828 8.75076 2.92475 8.75004 3.54168V18.4166C8.74476 19.4636 9.08647 20.4747 9.70754 21.2499L10.0938 21.7174L10.4788 22.0999L10.865 22.4257L11.25 22.6666H3.75008C2.75805 22.6663 1.80653 22.2206 1.10384 21.427C0.760857 21.0391 0.485988 20.581 0.293848 20.0769C0.096373 19.5522 -0.0036208 18.987 0.000100158 18.4166V7.08332C0.000100158 6.7076 0.131796 6.34727 0.366214 6.08159C0.600633 5.81592 0.918573 5.66666 1.25009 5.66666H2.50008ZM3.75008 5.66666H7.50005V3.54168C7.50005 3.24701 7.4513 2.96935 7.3538 2.71152C7.21231 2.32502 6.97214 1.99525 6.66412 1.76454C6.35609 1.53383 5.99426 1.4127 5.62506 1.41669C5.36506 1.41669 5.12007 1.47194 4.89257 1.58244C4.55154 1.7428 4.26057 2.01499 4.057 2.36408C3.85343 2.71318 3.74655 3.12325 3.75008 3.54168V5.66666Z" fill="black"/>
</svg>
