<svg width="856" height="631" viewBox="0 0 856 631" fill="none" xmlns="http://www.w3.org/2000/svg">
<g clip-path="url(#clip0)">
<path d="M763.402 337.591C759.672 380.671 740.892 422.301 714.102 456.731C712.982 458.171 711.849 459.597 710.702 461.011C708.122 464.191 705.475 467.311 702.762 470.371C699.442 474.141 696.025 477.824 692.512 481.421C689.652 484.381 686.725 487.277 683.732 490.111C681.422 492.321 679.085 494.487 676.722 496.611C648.292 522.301 615.632 543.501 581.982 562.041C516.312 598.211 444.332 625.611 369.462 629.601C294.602 633.581 216.452 612.141 161.552 561.081C87.5621 492.271 66.9122 377.501 96.9521 281.031C116.932 216.851 157.712 158.791 213.212 120.871C268.232 83.2807 337.642 66.3607 403.332 77.4208C455.772 45.5507 524.422 44.9408 581.432 68.5308C611.852 81.1208 639.152 99.8408 663.102 122.461C674.07 132.842 684.333 143.943 693.822 155.691C694.792 156.881 695.752 158.081 696.702 159.291C700.682 164.321 704.532 169.454 708.252 174.691C713.592 182.201 718.662 189.877 723.462 197.721C724.782 199.881 726.092 202.051 727.372 204.241C728.232 205.711 729.102 207.191 729.952 208.681C729.971 208.711 729.985 208.745 729.992 208.781C743.302 232.191 754.182 257.171 759.852 283.281C760.852 287.901 761.692 292.541 762.342 297.221V297.231C762.912 301.201 763.342 305.191 763.632 309.201C764.316 318.655 764.239 328.149 763.402 337.591V337.591Z" fill="#343649"/>
<path opacity="0.3" d="M568.044 402.717L419.582 279.039L563.81 407.671C564.089 408.142 564.477 408.539 564.94 408.829C565.404 409.12 565.93 409.296 566.475 409.343C567.02 409.39 567.568 409.306 568.075 409.099C568.581 408.891 569.03 408.566 569.386 408.15C569.741 407.734 569.992 407.24 570.119 406.707C570.245 406.175 570.242 405.62 570.111 405.089C569.979 404.558 569.723 404.065 569.364 403.653C569.005 403.241 568.552 402.92 568.044 402.717V402.717Z" fill="#F0F0F0"/>
<path d="M227.582 339.781C276.735 339.781 316.582 299.934 316.582 250.781C316.582 201.627 276.735 161.781 227.582 161.781C178.429 161.781 138.582 201.627 138.582 250.781C138.582 299.934 178.429 339.781 227.582 339.781Z" fill="#F2F2F2"/>
<path d="M306.582 244.781C306.583 255.418 304.488 265.951 300.418 275.779C296.348 285.607 290.381 294.537 282.86 302.058C275.338 309.58 266.408 315.546 256.58 319.617C246.753 323.687 236.219 325.782 225.582 325.781C216.101 325.775 206.694 324.117 197.782 320.881C183.848 315.805 171.574 307.003 162.296 295.434C153.018 283.866 147.091 269.973 145.162 255.27C143.232 240.566 145.373 225.615 151.352 212.044C157.33 198.473 166.918 186.802 179.07 178.302C191.222 169.803 205.473 164.8 220.271 163.838C235.07 162.876 249.849 165.993 262.998 172.849C276.148 179.705 287.165 190.036 294.85 202.72C302.535 215.403 306.593 229.951 306.582 244.781V244.781Z" fill="white"/>
<path d="M211.582 242.781C225.389 242.781 236.582 231.588 236.582 217.781C236.582 203.974 225.389 192.781 211.582 192.781C197.775 192.781 186.582 203.974 186.582 217.781C186.582 231.588 197.775 242.781 211.582 242.781Z" fill="#E4E4E4"/>
<path d="M303.422 222.311C298.004 224.917 291.828 225.484 286.026 223.907C280.223 222.33 275.184 218.715 271.831 213.724C268.478 208.733 267.036 202.701 267.769 196.733C268.502 190.765 271.361 185.262 275.822 181.231C289.08 191.712 298.73 206.075 303.422 222.311Z" fill="#F2F2F2"/>
<path d="M252.582 280.781C257.553 280.781 261.582 276.751 261.582 271.781C261.582 266.81 257.553 262.781 252.582 262.781C247.612 262.781 243.582 266.81 243.582 271.781C243.582 276.751 247.612 280.781 252.582 280.781Z" fill="#E4E4E4"/>
<path d="M215.582 322.781C215.581 323.571 215.477 324.358 215.272 325.121C209.3 324.374 203.433 322.951 197.782 320.881C198.251 318.709 199.507 316.788 201.308 315.487C203.109 314.185 205.327 313.596 207.536 313.832C209.745 314.067 211.789 315.112 213.274 316.764C214.76 318.416 215.582 320.559 215.582 322.781Z" fill="#F2F2F2"/>
<path d="M162.582 240.781C162.582 245.347 160.846 249.742 157.727 253.077C154.608 256.411 150.338 258.436 145.782 258.741C143.72 246.854 144.321 234.657 147.542 223.031C151.744 223.731 155.561 225.899 158.315 229.149C161.069 232.399 162.581 236.521 162.582 240.781Z" fill="#F2F2F2"/>
<path d="M606.457 212.185C608.501 212.185 610.159 210.528 610.159 208.483C610.159 206.438 608.501 204.781 606.457 204.781C604.412 204.781 602.754 206.438 602.754 208.483C602.754 210.528 604.412 212.185 606.457 212.185Z" fill="#506281"/>
<path d="M572.302 122.112C573.497 122.112 574.465 121.143 574.465 119.948C574.465 118.754 573.497 117.785 572.302 117.785C571.108 117.785 570.139 118.754 570.139 119.948C570.139 121.143 571.108 122.112 572.302 122.112Z" fill="#F0F0F0"/>
<path d="M225.302 546.112C226.497 546.112 227.465 545.143 227.465 543.948C227.465 542.754 226.497 541.785 225.302 541.785C224.108 541.785 223.139 542.754 223.139 543.948C223.139 545.143 224.108 546.112 225.302 546.112Z" fill="#F0F0F0"/>
<path d="M584.581 333.757C585.776 333.757 586.745 332.789 586.745 331.594C586.745 330.399 585.776 329.431 584.581 329.431C583.387 329.431 582.418 330.399 582.418 331.594C582.418 332.789 583.387 333.757 584.581 333.757Z" fill="#F0F0F0"/>
<path d="M305.457 354.185C307.501 354.185 309.159 352.528 309.159 350.483C309.159 348.438 307.501 346.781 305.457 346.781C303.412 346.781 301.754 348.438 301.754 350.483C301.754 352.528 303.412 354.185 305.457 354.185Z" fill="#506281"/>
<path d="M171.457 433.966C181.112 433.966 188.94 426.139 188.94 416.483C188.94 406.827 181.112 399 171.457 399C161.801 399 153.973 406.827 153.973 416.483C153.973 426.139 161.801 433.966 171.457 433.966Z" fill="#506281"/>
<path d="M267.302 438.112C268.497 438.112 269.465 437.143 269.465 435.948C269.465 434.754 268.497 433.785 267.302 433.785C266.108 433.785 265.139 434.754 265.139 435.948C265.139 437.143 266.108 438.112 267.302 438.112Z" fill="#F0F0F0"/>
<path d="M487.302 100.112C488.497 100.112 489.465 99.1431 489.465 97.9485C489.465 96.7538 488.497 95.7854 487.302 95.7854C486.108 95.7854 485.139 96.7538 485.139 97.9485C485.139 99.1431 486.108 100.112 487.302 100.112Z" fill="#F0F0F0"/>
<path d="M358.302 561.112C359.497 561.112 360.465 560.143 360.465 558.948C360.465 557.754 359.497 556.785 358.302 556.785C357.108 556.785 356.139 557.754 356.139 558.948C356.139 560.143 357.108 561.112 358.302 561.112Z" fill="#F0F0F0"/>
<path d="M326.302 120.112C327.497 120.112 328.465 119.143 328.465 117.948C328.465 116.754 327.497 115.785 326.302 115.785C325.108 115.785 324.139 116.754 324.139 117.948C324.139 119.143 325.108 120.112 326.302 120.112Z" fill="#F0F0F0"/>
<path d="M382.302 225.112C383.497 225.112 384.465 224.143 384.465 222.948C384.465 221.754 383.497 220.785 382.302 220.785C381.108 220.785 380.139 221.754 380.139 222.948C380.139 224.143 381.108 225.112 382.302 225.112Z" fill="#F0F0F0"/>
<path d="M296.581 482.757C297.776 482.757 298.745 481.789 298.745 480.594C298.745 479.399 297.776 478.431 296.581 478.431C295.387 478.431 294.418 479.399 294.418 480.594C294.418 481.789 295.387 482.757 296.581 482.757Z" fill="#F0F0F0"/>
<path d="M549.581 496.757C550.776 496.757 551.745 495.789 551.745 494.594C551.745 493.399 550.776 492.431 549.581 492.431C548.387 492.431 547.418 493.399 547.418 494.594C547.418 495.789 548.387 496.757 549.581 496.757Z" fill="#F0F0F0"/>
<path d="M437.581 370.757C438.776 370.757 439.745 369.789 439.745 368.594C439.745 367.399 438.776 366.431 437.581 366.431C436.387 366.431 435.418 367.399 435.418 368.594C435.418 369.789 436.387 370.757 437.581 370.757Z" fill="#F0F0F0"/>
<path d="M494.581 224.757C495.776 224.757 496.745 223.789 496.745 222.594C496.745 221.399 495.776 220.431 494.581 220.431C493.387 220.431 492.418 221.399 492.418 222.594C492.418 223.789 493.387 224.757 494.581 224.757Z" fill="#F0F0F0"/>
<path d="M598.212 296.944C600.581 296.944 602.501 295.023 602.501 292.655C602.501 290.286 600.581 288.366 598.212 288.366C595.843 288.366 593.923 290.286 593.923 292.655C593.923 295.023 595.843 296.944 598.212 296.944Z" fill="#FF6584"/>
<path d="M424.212 154.943C426.581 154.943 428.501 153.023 428.501 150.655C428.501 148.286 426.581 146.366 424.212 146.366C421.843 146.366 419.923 148.286 419.923 150.655C419.923 153.023 421.843 154.943 424.212 154.943Z" fill="#FF6584"/>
<path d="M424.212 449.944C426.581 449.944 428.501 448.023 428.501 445.655C428.501 443.286 426.581 441.366 424.212 441.366C421.843 441.366 419.923 443.286 419.923 445.655C419.923 448.023 421.843 449.944 424.212 449.944Z" fill="#FF6584"/>
<path d="M691.422 470.371C689.752 470.372 688.127 470.918 686.794 471.924C685.461 472.931 684.491 474.344 684.032 475.951C683.83 476.639 683.729 477.353 683.732 478.071V490.111C686.722 487.281 689.649 484.384 692.512 481.421C696.022 477.821 699.439 474.137 702.762 470.371H691.422Z" fill="#506281"/>
<path d="M718.651 532.931C705.739 532.931 691.587 532.443 676.194 531.467C596.581 526.412 493.457 508.834 385.818 481.975C278.181 455.116 178.888 422.181 106.233 389.241C70.8404 373.194 43.6768 358.004 25.4976 344.093C6.25056 329.366 -2.16838 316.529 0.473687 305.94C5.62169 285.312 51.2047 280.798 88.5377 280.645L88.5504 283.645C37.2823 283.855 7.03672 292.032 3.38487 306.667C-1.26699 325.307 36.6715 354.408 107.472 386.508C179.967 419.376 279.077 452.248 386.545 479.065C494.012 505.881 596.946 523.428 676.385 528.473C753.963 533.401 801.128 525.536 805.779 506.895C809.641 491.418 784.181 468.62 734.09 442.697L735.469 440.033C771.866 458.869 814.114 485.884 808.691 507.622C806.048 518.21 792.585 525.586 768.675 529.544C755.046 531.8 738.305 532.931 718.651 532.931Z" fill="#506281"/>
<path d="M714.582 309.281C770.087 309.281 815.082 264.285 815.082 208.781C815.082 153.276 770.087 108.281 714.582 108.281C659.077 108.281 614.082 153.276 614.082 208.781C614.082 264.285 659.077 309.281 714.582 309.281Z" fill="white"/>
<path d="M714.582 106.781C694.408 106.781 674.688 112.763 657.914 123.971C641.14 135.179 628.067 151.109 620.346 169.747C612.626 188.385 610.606 208.894 614.542 228.68C618.478 248.466 628.192 266.641 642.457 280.906C656.722 295.171 674.897 304.885 694.683 308.821C714.469 312.756 734.978 310.737 753.616 303.016C772.254 295.296 788.184 282.223 799.392 265.449C810.6 248.675 816.582 228.954 816.582 208.781C816.63 195.372 814.025 182.087 808.916 169.69C803.807 157.293 796.296 146.029 786.815 136.548C777.333 127.067 766.07 119.556 753.673 114.447C741.276 109.338 727.99 106.732 714.582 106.781V106.781ZM714.582 307.781C695.002 307.781 675.861 301.974 659.581 291.096C643.3 280.218 630.611 264.756 623.118 246.666C615.625 228.576 613.664 208.671 617.484 189.467C621.304 170.263 630.733 152.623 644.579 138.777C658.424 124.932 676.064 115.503 695.268 111.683C714.472 107.863 734.378 109.824 752.468 117.317C770.558 124.81 786.019 137.499 796.898 153.779C807.776 170.06 813.582 189.2 813.582 208.781C813.633 221.796 811.106 234.692 806.149 246.726C801.192 258.76 793.901 269.694 784.698 278.897C775.495 288.1 764.562 295.39 752.527 300.348C740.493 305.305 727.597 307.831 714.582 307.781V307.781Z" fill="#2F2E41"/>
<path d="M626.387 232.852C625.927 232.851 625.481 232.692 625.124 232.401C624.768 232.11 624.523 231.705 624.43 231.254C621.555 216.611 622.074 201.504 625.947 187.092C629.82 172.681 636.943 159.349 646.771 148.119C647.124 147.725 647.619 147.487 648.148 147.457C648.676 147.428 649.195 147.609 649.59 147.961C649.985 148.313 650.225 148.808 650.256 149.336C650.287 149.864 650.108 150.384 649.757 150.78C640.339 161.541 633.513 174.318 629.802 188.128C626.09 201.939 625.593 216.416 628.348 230.448C628.407 230.739 628.401 231.04 628.33 231.328C628.259 231.616 628.125 231.885 627.938 232.115C627.75 232.345 627.513 232.531 627.245 232.658C626.977 232.785 626.684 232.852 626.387 232.852H626.387Z" fill="#2F2E41"/>
<path d="M714.519 302.151C749.798 302.151 778.396 273.552 778.396 238.274C778.396 202.995 749.798 174.397 714.519 174.397C679.241 174.397 650.642 202.995 650.642 238.274C650.642 273.552 679.241 302.151 714.519 302.151Z" fill="#506281"/>
<path d="M694.218 262.39C690.077 262.275 684.924 262.131 680.954 259.231C679.772 258.332 678.8 257.185 678.108 255.872C677.416 254.558 677.019 253.108 676.946 251.625C676.874 250.571 677.047 249.514 677.451 248.538C677.855 247.562 678.48 246.692 679.276 245.997C681.349 244.245 684.377 243.834 687.64 244.793L684.26 220.087L686.741 219.747L690.716 248.792L688.643 247.841C686.241 246.739 682.942 246.178 680.893 247.91C680.39 248.363 679.998 248.926 679.747 249.555C679.497 250.184 679.395 250.862 679.449 251.537C679.51 252.641 679.808 253.719 680.322 254.697C680.837 255.676 681.556 256.532 682.432 257.208C685.521 259.465 689.629 259.756 694.288 259.886L694.218 262.39Z" fill="#2F2E41"/>
<path d="M671.986 222.218H658.495V224.723H671.986V222.218Z" fill="#2F2E41"/>
<path d="M714.571 222.218H701.08V224.723H714.571V222.218Z" fill="#2F2E41"/>
<path d="M717.202 317.941H659.302C657.144 317.943 655.075 318.801 653.548 320.327C652.022 321.853 651.164 323.922 651.162 326.081V454.411C651.168 463.107 653.553 471.636 658.058 479.075C662.563 486.513 669.018 492.577 676.722 496.611C679.092 494.491 681.429 492.324 683.732 490.111C686.722 487.281 689.649 484.384 692.512 481.421C696.022 477.821 699.439 474.137 702.762 470.371C705.482 467.311 708.129 464.191 710.702 461.011C711.852 459.601 712.986 458.174 714.102 456.731C740.892 422.301 759.672 380.671 763.402 337.591C757.422 331.373 750.247 326.427 742.308 323.05C734.369 319.674 725.829 317.936 717.202 317.941Z" fill="#2F2E41"/>
<path d="M719.312 344.721C717.935 343.372 716.304 342.309 714.514 341.593C712.724 340.878 710.81 340.523 708.882 340.551C705.532 340.576 702.294 341.764 699.722 343.911C699.311 344.244 698.92 344.601 698.552 344.981L651.162 393.581L616.792 428.831C616.27 429.357 615.838 429.965 615.512 430.631C614.997 431.661 614.733 432.799 614.742 433.951C614.752 434.898 614.95 435.834 615.325 436.704C615.699 437.574 616.242 438.362 616.922 439.021L618.272 440.341L628.072 449.891L628.082 449.881C629.399 450.95 631.047 451.526 632.742 451.511C633.689 451.501 634.625 451.303 635.495 450.928C636.366 450.554 637.153 450.011 637.812 449.331L639.402 447.711L650.782 436.041L651.162 435.651L719.572 365.491C722.291 362.702 723.791 358.947 723.742 355.052C723.694 351.157 722.1 347.441 719.312 344.721L719.312 344.721Z" fill="#506281"/>
<path d="M718.831 208.473C720.944 204.007 718.778 199.236 715.068 196.382C710.392 192.787 704.345 193.382 699.027 195.083C693.205 196.947 687.514 200.299 681.224 200.107C678.982 200.067 676.804 199.35 674.976 198.052C673.148 196.753 671.755 194.933 670.98 192.829C667.611 184.19 671.415 174.534 677.279 167.982C680.59 164.23 684.681 161.249 689.267 159.247C693.853 157.246 698.821 156.273 703.823 156.396C709.533 156.68 715.084 158.371 719.981 161.32C724.879 164.27 728.97 168.385 731.891 173.299C732.099 173.634 732.428 173.877 732.81 173.977C733.192 174.078 733.598 174.027 733.944 173.837C738.394 171.847 743.195 170.76 748.069 170.637C752.943 170.514 757.792 171.359 762.337 173.123C769.156 175.902 774.968 180.69 779.001 186.851C783.034 193.012 785.098 200.253 784.918 207.615C784.868 209.546 787.868 209.545 787.918 207.615C788.105 197.324 784.307 187.358 777.319 179.802C773.77 176.034 769.502 173.016 764.767 170.926C760.032 168.837 754.927 167.717 749.752 167.634C743.778 167.507 737.854 168.743 732.429 171.247L734.482 171.785C731.778 167.233 728.145 163.302 723.821 160.247C719.496 157.193 714.577 155.084 709.383 154.057C704.24 153.097 698.95 153.255 693.874 154.519C688.797 155.783 684.051 158.125 679.959 161.384C672.257 167.412 666.421 176.765 666.784 186.795C666.941 191.136 668.231 195.591 671.244 198.826C675.104 202.969 680.867 203.685 686.191 202.624C693.266 201.213 699.726 196.559 707.102 196.703C708.547 196.703 709.975 197.011 711.293 197.605C712.61 198.199 713.786 199.066 714.744 200.148C716.368 201.981 717.348 204.618 716.241 206.959C715.42 208.695 718.006 210.219 718.831 208.473L718.831 208.473Z" fill="#2F2E41"/>
<path d="M240.064 569.356C204.465 569.357 171.37 568.135 141.742 565.67C103.015 562.448 72.3272 557.267 50.5313 550.274C27.4547 542.869 15.212 533.607 14.1432 522.746C12.0602 501.587 53.4772 482.021 88.5885 469.333L89.608 472.155C41.3912 489.579 15.651 507.441 17.1285 522.453C19.0103 541.572 64.5206 556.234 141.99 562.68C221.316 569.281 325.708 566.942 435.938 556.09C546.168 545.242 649.013 527.184 725.529 505.245C800.255 483.819 842.034 460.565 840.152 441.446C838.589 425.572 806.949 412.653 751.06 405.067L751.463 402.094C792.073 407.606 840.943 418.856 843.137 441.152C844.207 452.013 834.004 463.484 812.815 475.246C792.8 486.355 763.711 497.418 726.356 508.128C649.671 530.117 546.636 548.209 436.232 559.077C366.972 565.893 299.986 569.356 240.064 569.356Z" fill="#506281"/>
<path d="M838.457 451.966C848.112 451.966 855.94 444.139 855.94 434.483C855.94 424.827 848.112 417 838.457 417C828.801 417 820.973 424.827 820.973 434.483C820.973 444.139 828.801 451.966 838.457 451.966Z" fill="#506281"/>
<path d="M331.457 34.9661C341.112 34.9661 348.94 27.1387 348.94 17.483C348.94 7.82743 341.112 0 331.457 0C321.801 0 313.973 7.82743 313.973 17.483C313.973 27.1387 321.801 34.9661 331.457 34.9661Z" fill="#E6E6E6"/>
<path d="M19.4565 450.966C29.1122 450.966 36.9396 443.139 36.9396 433.483C36.9396 423.827 29.1122 416 19.4565 416C9.80091 416 1.97348 423.827 1.97348 433.483C1.97348 443.139 9.80091 450.966 19.4565 450.966Z" fill="#E6E6E6"/>
<path d="M127.457 119.185C133.367 119.185 138.159 114.394 138.159 108.483C138.159 102.572 133.367 97.7808 127.457 97.7808C121.546 97.7808 116.754 102.572 116.754 108.483C116.754 114.394 121.546 119.185 127.457 119.185Z" fill="#FF6584"/>
<path d="M77.4565 525.185C83.3673 525.185 88.1589 520.394 88.1589 514.483C88.1589 508.572 83.3673 503.781 77.4565 503.781C71.5458 503.781 66.7542 508.572 66.7542 514.483C66.7542 520.394 71.5458 525.185 77.4565 525.185Z" fill="#FF6584"/>
<path d="M807.457 350.185C813.367 350.185 818.159 345.394 818.159 339.483C818.159 333.572 813.367 328.781 807.457 328.781C801.546 328.781 796.754 333.572 796.754 339.483C796.754 345.394 801.546 350.185 807.457 350.185Z" fill="#FF6584"/>
<path d="M645.457 615.966C655.112 615.966 662.94 608.139 662.94 598.483C662.94 588.827 655.112 581 645.457 581C635.801 581 627.973 588.827 627.973 598.483C627.973 608.139 635.801 615.966 645.457 615.966Z" fill="#E6E6E6"/>
</g>
<defs>
<clipPath id="clip0">
<rect width="855.94" height="630.066" fill="white"/>
</clipPath>
</defs>
</svg>
