<svg width="227" height="151" viewBox="0 0 227 151" fill="none" xmlns="http://www.w3.org/2000/svg">
<g clip-path="url(#clip0)">
<path d="M86.2313 86.2695C94.0106 72.5718 108.85 62.0543 124.558 63.0675C112.971 75.6799 106.215 91.9881 105.484 109.107C105.226 115.71 105.626 123.081 101.246 128.025C98.5205 131.102 94.3548 132.592 90.2589 132.904C86.1629 133.217 82.0679 132.476 78.0266 131.738L77.0463 132.04C76.6731 116.288 78.4519 99.9671 86.2313 86.2695Z" fill="#F0F0F0"/>
<path d="M119.775 64.0297C108.159 69.6271 98.2542 78.9753 92.1738 90.3762C90.8592 92.841 89.74 95.4559 89.2518 98.2207C88.7634 100.987 89.1045 103.62 90.0484 106.247C90.9113 108.649 92.0718 111.005 92.3364 113.575C92.6152 116.284 91.6195 118.817 89.8272 120.827C87.6342 123.286 84.6891 124.81 81.7573 126.2C78.5021 127.744 75.0965 129.296 72.7909 132.176C72.5115 132.526 71.9867 132.071 72.2657 131.723C76.2771 126.711 83.1435 125.768 87.905 121.731C90.1268 119.847 91.7949 117.281 91.6896 114.275C91.5976 111.646 90.4029 109.215 89.5082 106.791C88.5688 104.245 88.1003 101.686 88.4372 98.972C88.7818 96.1959 89.8013 93.5317 91.0471 91.044C93.8568 85.4337 97.7019 80.283 102.107 75.8305C107.169 70.7126 113.069 66.4992 119.551 63.3726C119.952 63.1792 120.174 63.8376 119.775 64.0297Z" fill="white"/>
<path d="M93.9549 86.566C92.1741 85.2626 90.9142 83.3681 90.4001 81.2207C89.8859 79.0733 90.1512 76.8129 91.1484 74.8432C91.3515 74.4454 91.9787 74.7427 91.7753 75.141C90.8433 76.9735 90.5965 79.0791 91.0793 81.0777C91.5621 83.0764 92.7428 84.8364 94.4083 86.0403C94.7699 86.3023 94.3145 86.8265 93.9549 86.566Z" fill="white"/>
<path d="M89.4506 105.087C93.9129 104.434 97.9656 102.122 100.8 98.6114C101.081 98.2634 101.606 98.7175 101.326 99.0652C98.3688 102.713 94.1465 105.11 89.5014 105.779C89.0587 105.843 89.0103 105.15 89.4506 105.087V105.087Z" fill="white"/>
<path d="M107.512 71.5671C108.096 72.2151 108.832 72.7077 109.653 73.0008C110.474 73.2939 111.355 73.3782 112.217 73.2462C112.659 73.1772 112.707 73.8702 112.268 73.9388C111.315 74.0802 110.342 73.9859 109.434 73.6641C108.526 73.3423 107.71 72.8028 107.059 72.0927C106.991 72.031 106.95 71.946 106.944 71.855C106.937 71.764 106.965 71.6739 107.023 71.603C107.083 71.5337 107.168 71.4911 107.26 71.4843C107.351 71.4776 107.442 71.5073 107.512 71.5671Z" fill="white"/>
<path d="M151.007 106.911C150.733 106.962 150.458 107.013 150.181 107.069C146.492 107.773 142.867 108.776 139.341 110.068C139.067 110.164 138.79 110.265 138.519 110.368C130.057 113.571 122.262 118.319 115.532 124.371C112.856 126.781 110.367 129.392 108.086 132.18C104.937 136.031 101.829 140.458 97.7138 142.969C97.2874 143.236 96.8449 143.476 96.3889 143.688L72.6832 133.846C72.6405 133.796 72.5954 133.752 72.5524 133.703L71.588 133.353C71.6956 133.201 71.8104 133.046 71.918 132.893C71.98 132.805 72.0473 132.719 72.1094 132.63C72.1524 132.572 72.1957 132.514 72.2312 132.459C72.2455 132.439 72.26 132.42 72.272 132.406C72.3075 132.351 72.3463 132.304 72.3796 132.254C73.0191 131.384 73.6658 130.516 74.3198 129.652C74.322 129.647 74.322 129.647 74.3295 129.644C79.3291 123.071 84.9208 116.858 91.2768 111.693C91.4681 111.537 91.6614 111.377 91.8635 111.226C94.7414 108.913 97.8033 106.84 101.019 105.027C102.782 104.04 104.595 103.143 106.449 102.339C111.245 100.271 116.336 98.9719 121.535 98.4879C131.899 97.5245 142.456 99.8898 150.405 106.407C150.608 106.574 150.806 106.739 151.007 106.911Z" fill="#F0F0F0"/>
<path d="M150.829 107.19C138.187 104.659 124.656 106.154 112.943 111.592C110.411 112.768 107.945 114.182 105.892 116.095C103.838 118.009 102.527 120.317 101.7 122.983C100.945 125.421 100.454 128.002 99.1191 130.213C97.7124 132.544 95.3939 133.966 92.7538 134.491C89.5234 135.133 86.2552 134.575 83.0781 133.919C79.5506 133.189 75.8981 132.376 72.3244 133.287C71.8914 133.397 71.7456 132.718 72.178 132.608C78.3956 131.023 84.4448 134.409 90.6752 134.055C93.5824 133.889 96.4575 132.846 98.1816 130.382C99.6894 128.228 100.198 125.567 100.942 123.092C101.723 120.494 102.888 118.168 104.79 116.204C106.735 114.195 109.151 112.682 111.642 111.447C117.26 108.66 123.428 106.865 129.624 105.964C136.744 104.929 143.989 105.12 151.045 106.53C151.482 106.617 151.263 107.277 150.829 107.19V107.19Z" fill="white"/>
<path d="M116.657 109.623C116.02 107.51 116.153 105.238 117.034 103.213C117.915 101.189 119.487 99.5439 121.468 98.5721C121.869 98.3769 122.191 98.9922 121.789 99.1877C119.943 100.089 118.479 101.622 117.663 103.508C116.846 105.395 116.73 107.512 117.336 109.477C117.467 109.904 116.788 110.048 116.657 109.623Z" fill="white"/>
<path d="M101.921 121.697C105.876 123.865 110.503 124.461 114.878 123.366C115.311 123.258 115.457 123.936 115.024 124.045C110.469 125.176 105.656 124.546 101.545 122.28C101.153 122.064 101.531 121.482 101.921 121.697Z" fill="white"/>
<path d="M136.504 105.818C136.58 106.687 136.871 107.524 137.351 108.253C137.83 108.982 138.483 109.58 139.251 109.994C139.645 110.205 139.266 110.787 138.875 110.578C138.029 110.116 137.309 109.455 136.777 108.65C136.246 107.846 135.919 106.924 135.826 105.964C135.809 105.874 135.828 105.782 135.877 105.705C135.926 105.629 136.003 105.574 136.091 105.551C136.181 105.533 136.275 105.55 136.352 105.6C136.429 105.65 136.484 105.728 136.504 105.818Z" fill="white"/>
<path d="M105.85 123.148C103.56 112.066 100.875 106.079 99.4297 103.431C98.7912 102.261 97.8472 101.31 96.7945 100.493L94.9494 99.0588C94.9109 99.0288 94.8894 98.982 94.8917 98.9332C94.8949 98.8664 94.8535 98.8056 94.7903 98.784L94.5274 98.6946C94.4728 98.676 94.4217 98.6485 94.3762 98.6131L94.3387 98.584L94.1973 98.4752C94.1788 98.461 94.1525 98.4632 94.1367 98.4803C94.1006 98.5177 94.0462 98.5309 93.997 98.5141L85.4503 95.6062L82.3792 94.5621C77.2448 92.8164 72.7417 89.5906 69.4368 85.2909C68.6114 84.217 67.5486 83.349 66.332 82.755C65.1153 82.1609 63.7777 81.857 62.424 81.8671L46.2375 81.9869C44.0489 82.0032 41.9455 82.8383 40.3408 84.3281L32.087 91.9914C30.5059 93.4594 28.7116 94.6794 26.7651 95.6099L13.14 102.123C13.1303 102.128 13.1187 102.126 13.1111 102.118C13.1023 102.109 13.0884 102.108 13.0783 102.116L12.938 102.216C12.9272 102.224 12.9157 102.23 12.9037 102.236L10.6373 103.321C10.4741 103.399 10.3841 103.577 10.4182 103.755C10.4473 103.907 10.3858 104.062 10.2603 104.153L9.1426 104.96C8.96864 105.086 8.81224 105.231 8.6866 105.405C7.83047 106.591 4.30521 112.05 1.4108 125.084C0.566248 128.889 0.150528 137.049 0.000475085 147.105C-0.00706204 147.613 0.0865079 148.119 0.275742 148.591C0.464976 149.063 0.7461 149.493 1.10277 149.855C1.45944 150.218 1.88453 150.505 2.35334 150.702C2.82214 150.899 3.3253 151 3.83357 151H92.3792C92.3792 151 92.3792 151 92.3792 151C92.3792 151 92.3792 151 92.3793 151H103.431C103.939 151 104.442 150.898 104.91 150.702C105.379 150.506 105.803 150.218 106.16 149.856C106.517 149.494 106.798 149.065 106.987 148.593C107.177 148.122 107.271 147.617 107.264 147.109C107.117 136.166 106.702 127.274 105.85 123.148Z" fill="#5B5B5B"/>
<path d="M117.21 14.0122C113.765 14.0122 110.462 15.382 108.026 17.8202C105.59 20.2585 104.221 23.5655 104.221 27.0137C104.221 30.4619 105.59 33.7689 108.026 36.2071C110.462 38.6454 113.765 40.0152 117.21 40.0152H214.011C217.456 40.0152 220.76 38.6454 223.196 36.2071C225.631 33.7689 227 30.4619 227 27.0137C227 23.5655 225.631 20.2585 223.196 17.8202C220.76 15.382 217.456 14.0122 214.011 14.0122H117.21Z" fill="#E5E5E5"/>
<path d="M117.21 16.6435C114.463 16.6435 111.827 17.7361 109.885 19.6809C107.942 21.6257 106.85 24.2634 106.85 27.0137C106.85 29.7641 107.942 32.4018 109.885 34.3466C111.827 36.2914 114.463 37.3839 117.21 37.3839H214.011C216.759 37.3839 219.394 36.2914 221.337 34.3466C223.28 32.4018 224.371 29.7641 224.371 27.0137C224.371 24.2634 223.28 21.6257 221.337 19.6809C219.394 17.7361 216.759 16.6435 214.011 16.6435H117.21Z" fill="white"/>
<path d="M56.8727 75.7804C68.5844 75.7804 78.0786 66.2772 78.0786 54.5544C78.0786 42.8316 68.5844 33.3284 56.8727 33.3284C45.1609 33.3284 35.6667 42.8316 35.6667 54.5544C35.6667 66.2772 45.1609 75.7804 56.8727 75.7804Z" fill="#9E616A"/>
<path d="M51.4477 74.741C51.3571 74.5414 51.2668 74.341 51.1767 74.14C51.2114 74.1411 51.2458 74.1461 51.2805 74.147L51.4477 74.741Z" fill="#2F2E41"/>
<path d="M35.077 34.2936C36.1495 33.4372 37.4031 32.6492 38.7744 32.6935C40.1456 32.7377 41.5362 33.9774 41.2521 35.3209C43.7708 30.8571 47.7799 27.4238 52.5756 25.6239C57.3713 23.8239 62.6472 23.7722 67.4771 25.4779C70.8853 26.6815 74.2276 29.0893 75.0105 32.6209C75.2114 33.5275 75.2546 34.5215 75.8201 35.2577C76.5331 36.1858 77.8973 36.3958 79.0206 36.0693C79.0319 36.066 79.0431 36.0627 79.0543 36.0594C79.2441 35.9945 79.4489 35.9881 79.6423 36.0411C79.8358 36.094 80.0089 36.2038 80.1393 36.3563C80.2697 36.5088 80.3513 36.6969 80.3738 36.8964C80.3962 37.0958 80.3583 37.2974 80.265 37.4751L79.3006 39.2753C80.5162 39.5465 81.7793 39.5196 82.9823 39.1969C83.1822 39.1444 83.3933 39.1552 83.5868 39.2276C83.7803 39.3 83.9467 39.4306 84.0632 39.6014C84.1796 39.7722 84.2404 39.9749 84.2373 40.1816C84.2341 40.3884 84.167 40.5891 84.0454 40.7563C80.8656 45.126 75.5532 47.9478 70.132 47.9147C66.279 47.8912 62.3863 46.562 58.6365 47.4489C57.1858 47.792 55.8303 48.4558 54.6693 49.3917C53.5084 50.3275 52.5715 51.5117 51.9275 52.8573C51.2834 54.2028 50.9484 55.6756 50.9472 57.1677C50.946 58.6597 51.2785 60.1331 51.9203 61.4797C50.7683 60.2185 48.5415 60.5171 47.3631 61.7537C46.1847 62.9903 45.8797 64.8359 45.9984 66.5407C46.18 69.1481 47.2006 71.6049 48.2765 73.9961C39.2557 73.7119 30.7236 67.378 27.8516 58.8112C24.9676 50.2085 27.9902 39.9523 35.077 34.2936Z" fill="#2F2E41"/>
<path opacity="0.2" d="M20.8722 118.297L26.82 150.689L30.3888 151L20.8722 118.297Z" fill="#F2F2F2"/>
<path opacity="0.2" d="M86.3883 115.855L80.4405 150.666L76.8717 151L86.3883 115.855Z" fill="#F2F2F2"/>
<path d="M40.15 23.3923C39.0096 23.869 37.8196 23.3466 37.3206 22.1503C36.8139 20.9358 37.2871 19.7028 38.4458 19.2186C39.6046 18.7342 40.7734 19.2579 41.2882 20.492C41.7954 21.7077 41.3273 22.9003 40.15 23.3923ZM37.9655 16.8279L37.0587 17.2069C36.8322 17.3004 36.5788 17.3055 36.3488 17.221C36.1187 17.1366 35.9287 16.9688 35.8163 16.7508L35.7715 16.663C34.7959 14.9018 34.6841 12.7612 35.4412 10.3042C36.1426 8.10017 36.4339 6.55007 35.8481 5.14575C35.1707 3.5221 33.7244 3.01349 31.8799 3.75027C31.1645 4.04927 30.9369 4.0445 30.374 4.60349C30.2515 4.72656 30.1055 4.82369 29.9448 4.88908C29.784 4.95447 29.6117 4.98679 29.4382 4.9841C29.2705 4.98213 29.1048 4.94636 28.9512 4.87893C28.7976 4.81151 28.6591 4.7138 28.544 4.59165C28.3223 4.35624 28.198 4.04539 28.1964 3.72186C28.1948 3.39832 28.3159 3.08623 28.5352 2.84859C29.4815 1.85713 30.6227 1.07276 31.887 0.54497C35.85 -1.11137 37.8449 1.33398 38.7578 3.52234C39.6508 5.66281 39.1485 7.64881 38.3414 10.2209C37.6651 12.3581 37.7045 13.9418 38.4727 15.5164C38.5282 15.6354 38.5591 15.7645 38.5635 15.8958C38.5679 16.027 38.5457 16.1579 38.4983 16.2803C38.451 16.4028 38.3793 16.5145 38.2878 16.6086C38.1962 16.7027 38.0866 16.7773 37.9655 16.8279L37.9655 16.8279Z" fill="#506281"/>
<path d="M163.024 33.3693H143.765C143.704 33.3697 143.643 33.358 143.586 33.3349C143.53 33.3117 143.478 33.2776 143.435 33.2344C143.391 33.1913 143.357 33.1399 143.333 33.0834C143.31 33.0268 143.298 32.9662 143.298 32.905C143.298 32.8437 143.31 32.7831 143.333 32.7265C143.357 32.67 143.391 32.6187 143.435 32.5755C143.478 32.5323 143.53 32.4982 143.586 32.4751C143.643 32.4519 143.704 32.4402 143.765 32.4406H163.024C163.086 32.4402 163.146 32.4519 163.203 32.4751C163.26 32.4982 163.311 32.5323 163.355 32.5755C163.398 32.6187 163.432 32.67 163.456 32.7265C163.479 32.7831 163.492 32.8437 163.492 32.905C163.492 32.9662 163.479 33.0268 163.456 33.0834C163.432 33.1399 163.398 33.1913 163.355 33.2344C163.311 33.2776 163.26 33.3117 163.203 33.3349C163.146 33.358 163.086 33.3697 163.024 33.3693Z" fill="#506281"/>
<path d="M187.456 33.5241H168.197C168.074 33.5232 167.957 33.474 167.871 33.387C167.784 33.3 167.736 33.1823 167.736 33.0597C167.736 32.9371 167.784 32.8195 167.871 32.7325C167.957 32.6455 168.074 32.5962 168.197 32.5954H187.456C187.518 32.595 187.578 32.6067 187.635 32.6298C187.692 32.653 187.743 32.6871 187.786 32.7303C187.83 32.7734 187.864 32.8248 187.888 32.8813C187.911 32.9379 187.923 32.9985 187.923 33.0597C187.923 33.121 187.911 33.1816 187.888 33.2382C187.864 33.2947 187.83 33.346 187.786 33.3892C187.743 33.4324 187.692 33.4665 187.635 33.4896C187.578 33.5128 187.518 33.5245 187.456 33.5241H187.456Z" fill="#506281"/>
<path d="M211.889 33.6789H192.629C192.506 33.678 192.389 33.6287 192.303 33.5417C192.217 33.4548 192.168 33.3371 192.168 33.2145C192.168 33.0919 192.217 32.9743 192.303 32.8873C192.389 32.8003 192.506 32.751 192.629 32.7502H211.889C212.011 32.751 212.128 32.8003 212.215 32.8873C212.301 32.9743 212.349 33.0919 212.349 33.2145C212.349 33.3371 212.301 33.4548 212.215 33.5417C212.128 33.6287 212.011 33.678 211.889 33.6789Z" fill="#506281"/>
<path d="M128.92 28.9412C130.897 28.9412 132.5 27.337 132.5 25.3582C132.5 23.3794 130.897 21.7753 128.92 21.7753C126.943 21.7753 125.341 23.3794 125.341 25.3582C125.341 27.337 126.943 28.9412 128.92 28.9412Z" fill="#506281"/>
<path d="M153.5 28.9412C155.477 28.9412 157.079 27.337 157.079 25.3582C157.079 23.3794 155.477 21.7753 153.5 21.7753C151.523 21.7753 149.92 23.3794 149.92 25.3582C149.92 27.337 151.523 28.9412 153.5 28.9412Z" fill="#506281"/>
<path d="M178.079 28.9412C180.056 28.9412 181.659 27.337 181.659 25.3582C181.659 23.3794 180.056 21.7753 178.079 21.7753C176.103 21.7753 174.5 23.3794 174.5 25.3582C174.5 27.337 176.103 28.9412 178.079 28.9412Z" fill="#506281"/>
<path d="M202.659 28.9412C204.636 28.9412 206.239 27.337 206.239 25.3582C206.239 23.3794 204.636 21.7753 202.659 21.7753C200.682 21.7753 199.08 23.3794 199.08 25.3582C199.08 27.337 200.682 28.9412 202.659 28.9412Z" fill="#506281"/>
</g>
<defs>
<clipPath id="clip0">
<rect width="227" height="151" fill="white"/>
</clipPath>
</defs>
</svg>
