<svg width="20" height="21" viewBox="0 0 20 21" fill="none" xmlns="http://www.w3.org/2000/svg">
<path d="M11.4314 0.51868C11.0381 0.184736 10.528 0 9.99929 0C9.47054 0 8.96046 0.184736 8.56714 0.51868L0.71 7.19038C0.486604 7.38023 0.307949 7.61234 0.185632 7.87166C0.0633145 8.13098 6.87969e-05 8.41171 0 8.69563V18.2199C0 18.7569 0.225765 19.272 0.627628 19.6518C1.02949 20.0315 1.57454 20.2449 2.14286 20.2449H5C5.56832 20.2449 6.11337 20.0315 6.51523 19.6518C6.91709 19.272 7.14286 18.7569 7.14286 18.2199V12.8199C7.14286 12.6409 7.21811 12.4692 7.35207 12.3426C7.48602 12.216 7.6677 12.1449 7.85714 12.1449H12.1429C12.3323 12.1449 12.514 12.216 12.6479 12.3426C12.7819 12.4692 12.8571 12.6409 12.8571 12.8199V18.2199C12.8571 18.7569 13.0829 19.272 13.4848 19.6518C13.8866 20.0315 14.4317 20.2449 15 20.2449H17.8571C18.4255 20.2449 18.9705 20.0315 19.3724 19.6518C19.7742 19.272 20 18.7569 20 18.2199V8.69563C19.9999 8.41171 19.9367 8.13098 19.8144 7.87166C19.6921 7.61234 19.5134 7.38023 19.29 7.19038L11.4329 0.51868H11.4314Z" fill="black"/>
</svg>
