<svg width="20" height="20" viewBox="0 0 20 20" fill="none" xmlns="http://www.w3.org/2000/svg">
<path d="M8.56857 0.499469C8.96189 0.177894 9.47197 0 10.0007 0C10.5295 0 11.0395 0.177894 11.4329 0.499469L19.29 6.92407C19.5134 7.10688 19.6921 7.3304 19.8144 7.58012C19.9367 7.82984 19.9999 8.10017 20 8.37357V17.5451C20 18.0622 19.7742 18.5582 19.3724 18.9239C18.9705 19.2896 18.4255 19.4951 17.8571 19.4951H14.2857C13.7174 19.4951 13.1723 19.2896 12.7705 18.9239C12.3686 18.5582 12.1429 18.0622 12.1429 17.5451V12.9951C12.1429 12.8227 12.0676 12.6574 11.9336 12.5355C11.7997 12.4136 11.618 12.3451 11.4286 12.3451H8.57143C8.38199 12.3451 8.20031 12.4136 8.06635 12.5355C7.9324 12.6574 7.85714 12.8227 7.85714 12.9951V17.5451C7.85714 18.0622 7.63138 18.5582 7.22951 18.9239C6.82765 19.2896 6.28261 19.4951 5.71429 19.4951H2.14286C1.57454 19.4951 1.02949 19.2896 0.627628 18.9239C0.225765 18.5582 0 18.0622 0 17.5451V8.37357C0 7.82107 0.257143 7.29457 0.711428 6.92407L8.56857 0.499469V0.499469ZM10.4771 1.46667C10.3461 1.3596 10.1761 1.30037 10 1.30037C9.82386 1.30037 9.65393 1.3596 9.52286 1.46667L1.66571 7.89127C1.59128 7.95207 1.53171 8.02642 1.49086 8.1095C1.45001 8.19259 1.42879 8.28255 1.42857 8.37357V17.5451C1.42857 17.7175 1.50383 17.8828 1.63778 18.0047C1.77174 18.1266 1.95342 18.1951 2.14286 18.1951H5.71429C5.90373 18.1951 6.08541 18.1266 6.21936 18.0047C6.35332 17.8828 6.42857 17.7175 6.42857 17.5451V12.9951C6.42857 12.4779 6.65434 11.9819 7.0562 11.6162C7.45806 11.2505 8.00311 11.0451 8.57143 11.0451H11.4286C11.9969 11.0451 12.5419 11.2505 12.9438 11.6162C13.3457 11.9819 13.5714 12.4779 13.5714 12.9951V17.5451C13.5714 17.7175 13.6467 17.8828 13.7806 18.0047C13.9146 18.1266 14.0963 18.1951 14.2857 18.1951H17.8571C18.0466 18.1951 18.2283 18.1266 18.3622 18.0047C18.4962 17.8828 18.5714 17.7175 18.5714 17.5451V8.37357C18.5712 8.28255 18.55 8.19259 18.5091 8.1095C18.4683 8.02642 18.4087 7.95207 18.3343 7.89127L10.4771 1.46667Z" fill="black"/>
</svg>
