<svg width="175" height="177" viewBox="0 0 175 177" fill="none" xmlns="http://www.w3.org/2000/svg">
<ellipse cx="89.5" cy="75.5" rx="79.5" ry="75.5" fill="white"/>
<g clip-path="url(#clip0)">
<path d="M132.984 149.982L134.389 177C134.389 177 74.9743 120.349 67.5723 103.774C60.1703 87.1983 74.1035 46.196 74.1035 46.196L105.018 63.2076L132.984 149.982Z" fill="#EBA882"/>
<path d="M41.8829 34.855L32.7392 35.7274C32.7392 35.7274 27.9497 46.196 42.7537 47.0684L41.8829 34.855Z" fill="#EBA882"/>
<path d="M41.8829 50.9941L32.7392 51.8665C32.7392 51.8665 27.9497 62.3352 42.7537 63.2076L41.8829 50.9941Z" fill="#EBA882"/>
<path d="M41.8829 68.442L32.7392 69.3143C32.7392 69.3143 27.9497 79.783 42.7537 80.6554L41.8829 68.442Z" fill="#EBA882"/>
<path d="M44.4954 85.8897L35.3517 86.7621C35.3517 86.7621 30.5621 97.2308 45.3662 98.1031L44.4954 85.8897Z" fill="#EBA882"/>
<path d="M37.4313 39.0606H38.1251V20.0201C38.1251 18.5729 38.4097 17.1399 38.9625 15.8029C39.5153 14.4659 40.3256 13.251 41.3471 12.2277C42.3685 11.2044 43.5812 10.3927 44.9158 9.83886C46.2505 9.28505 47.6809 9 49.1255 9H89.3931C90.8377 9 92.2682 9.28504 93.6028 9.83885C94.9374 10.3927 96.1501 11.2044 97.1716 12.2277C98.1931 13.251 99.0033 14.4659 99.5562 15.8029C100.109 17.1399 100.394 18.5729 100.394 20.0201V124.478C100.394 125.925 100.109 127.358 99.5562 128.695C99.0034 130.032 98.1931 131.247 97.1716 132.27C96.1501 133.293 94.9375 134.105 93.6028 134.659C92.2682 135.213 90.8378 135.498 89.3932 135.498H49.1256C46.2081 135.498 43.4101 134.337 41.3471 132.27C39.2841 130.204 38.1252 127.4 38.1251 124.478V52.614H37.4313V39.0606Z" fill="#3F3D56"/>
<path d="M48.6817 11.8671H53.938C53.6962 12.4608 53.604 13.1049 53.6693 13.7427C53.7346 14.3805 53.9555 14.9925 54.3125 15.5246C54.6695 16.0568 55.1516 16.4929 55.7165 16.7944C56.2813 17.0959 56.9115 17.2536 57.5515 17.2537H80.6203C81.2603 17.2536 81.8905 17.0959 82.4554 16.7944C83.0202 16.4929 83.5024 16.0568 83.8594 15.5246C84.2164 14.9925 84.4373 14.3805 84.5026 13.7427C84.5679 13.1049 84.4756 12.4608 84.2339 11.8671H89.1432C91.322 11.8671 93.4115 12.7341 94.9521 14.2775C96.4927 15.8208 97.3582 17.9141 97.3582 20.0968V124.401C97.3582 125.482 97.1457 126.552 96.7329 127.551C96.32 128.549 95.7149 129.456 94.9521 130.22C94.1893 130.985 93.2837 131.591 92.287 132.004C91.2903 132.418 90.222 132.631 89.1432 132.631H48.6817C47.6029 132.631 46.5347 132.418 45.538 132.004C44.5413 131.591 43.6357 130.985 42.8728 130.22C42.11 129.456 41.5049 128.549 41.0921 127.551C40.6792 126.552 40.4667 125.482 40.4667 124.401V20.0968C40.4667 19.016 40.6792 17.9459 41.0921 16.9474C41.5049 15.9489 42.11 15.0417 42.8728 14.2775C43.6357 13.5133 44.5413 12.9071 45.538 12.4935C46.5347 12.0799 47.6029 11.8671 48.6817 11.8671Z" fill="white"/>
<path d="M77.5813 41.088H60.2437V45.2792H77.5813V41.088Z" fill="#506281"/>
<path d="M78.4066 59.0975H59.4182V63.2887H78.4066V59.0975Z" fill="#E5E5E5"/>
<path d="M90.1027 68.1008H47.7223V72.292H90.1027V68.1008Z" fill="#E5E5E5"/>
<path d="M90.1027 77.1041H47.7223V81.2953H90.1027V77.1041Z" fill="#E5E5E5"/>
<path d="M167.5 153C142.5 124.607 125.264 108.354 125.264 108.354L123.523 72.5858L105.235 42.0522L100.011 28.9664C100.011 28.9664 87.819 30.275 97.8335 55.138L101.97 68.442C98.2412 76.4873 96.3095 85.2508 96.3095 94.121V124.607C96.3095 131.785 130.456 170.886 134.431 176.859C134.431 176.859 185.99 174 167.5 153Z" fill="#FFD6BF"/>
<path opacity="0.2" d="M101.444 44.6395L105.08 42.8496L104.956 42.5969L101.597 44.2509L96.5259 30.9326L96.2635 31.0331L101.444 44.6395Z" fill="black"/>
<path opacity="0.2" d="M32.7879 35.5949L32.6908 35.859L38.0764 37.8465L38.1736 37.5823L32.7879 35.5949Z" fill="black"/>
<path opacity="0.2" d="M32.7879 51.918L32.6908 52.1821L38.0764 54.1696L38.1736 53.9055L32.7879 51.918Z" fill="black"/>
<path opacity="0.2" d="M32.7879 69.3668L32.6908 69.6309L38.0764 71.6184L38.1736 71.3543L32.7879 69.3668Z" fill="black"/>
<path opacity="0.2" d="M35.6095 86.8208L35.4879 87.0745L38.11 88.3353L38.2315 88.0816L35.6095 86.8208Z" fill="black"/>
<path d="M68.9339 117.466C75.6412 117.466 81.0785 112.019 81.0785 105.299C81.0785 98.5801 75.6412 93.1331 68.9339 93.1331C62.2267 93.1331 56.7894 98.5801 56.7894 105.299C56.7894 112.019 62.2267 117.466 68.9339 117.466Z" fill="#506281"/>
<path d="M67.7766 110.435L64.1419 105.753L66.2556 104.106L67.9766 106.323L73.791 100.174L75.7353 102.019L67.7766 110.435Z" fill="white"/>
<path d="M100 163L141 113C149.333 115.667 173.2 129.4 202 163C230.8 196.6 173.333 199 141 196L100 163Z" fill="#626262"/>
</g>
<path d="M128 40L163 12" stroke="#E9E8EC" stroke-width="7" stroke-linecap="round"/>
<path d="M146 47L171 29" stroke="#E9E8EC" stroke-width="7" stroke-linecap="round"/>
<path d="M4 103L21 89" stroke="#E9E8EC" stroke-width="7" stroke-linecap="round"/>
<defs>
<clipPath id="clip0">
<path d="M32 9H174V122C174 152.376 149.376 177 119 177H32V9Z" fill="white"/>
</clipPath>
</defs>
</svg>
