<svg width="179" height="163" viewBox="0 0 179 163" fill="none" xmlns="http://www.w3.org/2000/svg">
<path d="M154.263 14.988L4.27666 58.6171L8.24936 72.2302L158.236 28.6011L154.263 14.988Z" fill="#3F3D56"/>
<path d="M22.1962 121.147L0.0894036 45.3949C-0.0744901 44.8333 -0.00819982 44.2296 0.273681 43.7168C0.555562 43.204 1.02995 42.8239 1.59248 42.6603L147.943 0.0887712C148.505 -0.0743078 149.11 -0.00790048 149.623 0.273424C150.137 0.554749 150.517 1.028 150.682 1.5893L170.267 68.7003L169.661 68.8766L150.076 1.76562C149.958 1.36486 149.686 1.02701 149.319 0.826094C148.953 0.625179 148.521 0.577574 148.119 0.693718L1.76904 43.2653C1.36723 43.3822 1.02839 43.6536 0.827044 44.0199C0.6257 44.3862 0.57835 44.8174 0.695412 45.2186L22.8022 120.971L22.1962 121.147Z" fill="#3F3D56"/>
<path d="M137.874 69.012C137.43 69.0115 136.999 68.8675 136.643 68.6015C136.288 68.3355 136.029 67.9618 135.904 67.5364L132.196 54.8309C132.045 54.3094 132.107 53.7492 132.368 53.2732C132.63 52.7971 133.07 52.4442 133.592 52.2917L146.318 48.5898C146.84 48.4385 147.402 48.5003 147.878 48.7615C148.355 49.0228 148.709 49.4622 148.861 49.9834L152.569 62.6889C152.721 63.2104 152.659 63.7706 152.397 64.2466C152.136 64.7227 151.696 65.0756 151.174 65.2281L138.447 68.93C138.261 68.9843 138.068 69.0119 137.874 69.012Z" fill="#506281"/>
<path d="M21.8543 45.629C21.8162 45.4985 21.7709 45.3702 21.7185 45.2446C21.3627 44.3824 20.7003 43.6819 19.8586 43.2776C19.0168 42.8734 18.0551 42.794 17.1583 43.0547C16.2615 43.3154 15.4928 43.8977 15 44.6899C14.5071 45.4821 14.3248 46.4281 14.4882 47.3463C14.5111 47.4802 14.5417 47.6128 14.5797 47.7433C14.8102 48.5287 15.2893 49.2184 15.9453 49.7092C16.6013 50.2 17.3988 50.4654 18.2186 50.4657C18.5764 50.4665 18.9326 50.4155 19.2759 50.3145C20.2394 50.0334 21.0519 49.3823 21.5353 48.5039C22.0186 47.6256 22.1334 46.5917 21.8543 45.629ZM19.0991 49.7095C18.2956 49.9423 17.4324 49.8475 16.6987 49.4458C15.9651 49.0442 15.421 48.3685 15.1857 47.5669C15.1487 47.4363 15.1192 47.3037 15.0972 47.1698C14.9788 46.4133 15.1405 45.6397 15.552 44.9936C15.9635 44.3474 16.5966 43.8731 17.333 43.6591C18.0693 43.4452 18.8585 43.5064 19.553 43.8313C20.2475 44.1561 20.7996 44.7224 21.1063 45.4242C21.1634 45.5475 21.2109 45.6749 21.2484 45.8055C21.4813 46.6077 21.3857 47.4695 20.9828 48.2014C20.5798 48.9334 19.9023 49.4758 19.0991 49.7095V49.7095Z" fill="#506281"/>
<path d="M12.5654 48.3294C12.3634 47.6369 12.3828 46.8987 12.6209 46.2178C12.8589 45.5368 13.3038 44.9469 13.8935 44.5303C13.341 44.5034 12.7901 44.6087 12.2866 44.8375C11.7832 45.0662 11.3417 45.4117 10.9991 45.8453C10.6565 46.2789 10.4226 46.7879 10.3169 47.33C10.2112 47.8721 10.2368 48.4315 10.3915 48.9617C10.5463 49.4919 10.8256 49.9776 11.2064 50.3781C11.5872 50.7787 12.0584 51.0826 12.5806 51.2646C13.1029 51.4466 13.6611 51.5013 14.2089 51.4243C14.7566 51.3472 15.278 51.1406 15.7296 50.8217C15.008 50.7865 14.3154 50.5275 13.7482 50.0808C13.181 49.634 12.7676 49.0218 12.5654 48.3294Z" fill="#506281"/>
<path d="M110.674 63.9453C110.607 63.7042 110.493 63.4787 110.338 63.2816C110.184 63.0845 109.992 62.9199 109.773 62.7969C109.555 62.674 109.314 62.5953 109.066 62.5653C108.817 62.5352 108.564 62.5545 108.323 62.6219L87.37 68.4732L85.1135 69.1034H99.284L101.541 68.4732L109.352 66.2927C109.839 66.1562 110.251 65.8323 110.499 65.3922C110.747 64.952 110.81 64.4317 110.674 63.9453Z" fill="#CCCCCC"/>
<path d="M95.8503 59.575C95.7138 59.0887 95.3894 58.6764 94.9484 58.4288C94.5075 58.1813 93.9861 58.1186 93.499 58.2548L62.0589 67.0332C61.6195 67.1575 61.2391 67.4344 60.9862 67.814C60.7333 68.1935 60.6246 68.6508 60.6796 69.1034H68.819L71.0786 68.4732L94.5279 61.9256C95.0152 61.7886 95.4282 61.4641 95.6761 61.0234C95.924 60.5827 95.9867 60.0618 95.8503 59.575Z" fill="#CCCCCC"/>
<path d="M176.791 68.4725H24.355C23.7693 68.4731 23.2077 68.7057 22.7935 69.1192C22.3794 69.5327 22.1464 70.0933 22.1458 70.6781V160.794C22.1464 161.379 22.3793 161.94 22.7935 162.353C23.2077 162.767 23.7692 162.999 24.355 163H176.791C177.377 162.999 177.938 162.767 178.352 162.353C178.766 161.94 178.999 161.379 179 160.794V70.6781C178.999 70.0934 178.766 69.5327 178.352 69.1192C177.938 68.7058 177.376 68.4732 176.791 68.4725ZM178.369 160.794C178.369 161.212 178.202 161.613 177.906 161.908C177.611 162.204 177.209 162.37 176.791 162.37H24.355C23.9365 162.37 23.5352 162.204 23.2393 161.908C22.9434 161.613 22.7771 161.212 22.777 160.794V70.6781C22.7771 70.2603 22.9435 69.8597 23.2393 69.5643C23.5352 69.2689 23.9365 69.1028 24.355 69.1027H176.791C177.209 69.1028 177.611 69.2689 177.906 69.5643C178.202 69.8597 178.369 70.2603 178.369 70.6781V160.794Z" fill="#3F3D56"/>
<path d="M39.1871 80.7618C38.4381 80.7618 37.7059 80.54 37.0831 80.1245C36.4603 79.7091 35.9748 79.1185 35.6882 78.4276C35.4015 77.7367 35.3265 76.9765 35.4727 76.243C35.6188 75.5095 35.9795 74.8358 36.5092 74.307C37.0388 73.7782 37.7136 73.4181 38.4483 73.2722C39.1829 73.1263 39.9444 73.2012 40.6364 73.4874C41.3285 73.7736 41.92 74.2582 42.3361 74.88C42.7522 75.5018 42.9744 76.2328 42.9744 76.9807C42.9732 77.9831 42.5738 78.9442 41.8638 79.653C41.1538 80.3619 40.1912 80.7606 39.1871 80.7618ZM39.1871 73.8297C38.5629 73.8297 37.9527 74.0145 37.4337 74.3608C36.9147 74.707 36.5102 75.1991 36.2714 75.7749C36.0325 76.3506 35.97 76.9842 36.0918 77.5954C36.2135 78.2066 36.5141 78.768 36.9555 79.2087C37.3969 79.6494 37.9592 79.9495 38.5714 80.071C39.1836 80.1926 39.8182 80.1302 40.3949 79.8917C40.9716 79.6532 41.4645 79.2494 41.8113 78.7312C42.1581 78.2131 42.3431 77.6039 42.3431 76.9807C42.3422 76.1453 42.0094 75.3444 41.4177 74.7537C40.8261 74.163 40.0239 73.8307 39.1871 73.8297Z" fill="#506281"/>
<path d="M33.3005 76.9807C33.3006 76.2594 33.526 75.5561 33.9454 74.9688C34.3647 74.3815 34.9571 73.9394 35.64 73.7042C35.1171 73.524 34.5587 73.4713 34.0112 73.5503C33.4637 73.6293 32.9431 73.8378 32.4927 74.1583C32.0423 74.4789 31.6751 74.9023 31.4217 75.3932C31.1684 75.8841 31.0362 76.4284 31.0362 76.9807C31.0362 77.5329 31.1684 78.0772 31.4217 78.5681C31.6751 79.059 32.0423 79.4824 32.4927 79.803C32.9431 80.1236 33.4637 80.332 34.0112 80.411C34.5587 80.49 35.1171 80.4373 35.64 80.2572C34.9571 80.0219 34.3647 79.5798 33.9454 78.9925C33.526 78.4052 33.3006 77.7019 33.3005 76.9807Z" fill="#506281"/>
<path d="M54.5392 121.654C53.7861 121.653 53.0641 121.354 52.5316 120.822C51.9991 120.291 51.6996 119.57 51.6988 118.818V110.31C51.6988 109.558 51.998 108.837 52.5307 108.305C53.0634 107.773 53.7858 107.475 54.5392 107.475C55.2925 107.475 56.015 107.773 56.5476 108.305C57.0803 108.837 57.3796 109.558 57.3796 110.31V118.818C57.3787 119.57 57.0792 120.291 56.5467 120.822C56.0142 121.354 55.2922 121.653 54.5392 121.654Z" fill="#506281"/>
<path d="M62.1136 121.654C61.3605 121.653 60.6386 121.354 60.1061 120.822C59.5736 120.291 59.2741 119.57 59.2732 118.818V110.31C59.2732 109.558 59.5724 108.837 60.1051 108.305C60.6378 107.773 61.3603 107.475 62.1136 107.475C62.8669 107.475 63.5894 107.773 64.1221 108.305C64.6548 108.837 64.954 109.558 64.954 110.31V118.818C64.9532 119.57 64.6536 120.291 64.1211 120.822C63.5886 121.354 62.8667 121.653 62.1136 121.654Z" fill="#506281"/>
<path d="M69.688 121.654C68.935 121.653 68.213 121.354 67.6805 120.822C67.148 120.291 66.8485 119.57 66.8476 118.818V110.31C66.8476 109.558 67.1469 108.837 67.6796 108.305C68.2123 107.773 68.9347 107.475 69.688 107.475C70.4414 107.475 71.1638 107.773 71.6965 108.305C72.2292 108.837 72.5285 109.558 72.5285 110.31V118.818C72.5276 119.57 72.2281 120.291 71.6956 120.822C71.1631 121.354 70.4411 121.653 69.688 121.654Z" fill="#506281"/>
<path d="M81.3653 121.654C80.6122 121.653 79.8903 121.354 79.3578 120.822C78.8253 120.291 78.5258 119.57 78.5249 118.818V110.31C78.5249 109.558 78.8242 108.837 79.3568 108.305C79.8895 107.773 80.612 107.475 81.3653 107.475C82.1186 107.475 82.8411 107.773 83.3738 108.305C83.9065 108.837 84.2057 109.558 84.2057 110.31V118.818C84.2048 119.57 83.9053 120.291 83.3728 120.822C82.8403 121.354 82.1184 121.653 81.3653 121.654Z" fill="#506281"/>
<path d="M88.9398 121.654C88.1867 121.653 87.4647 121.354 86.9322 120.822C86.3998 120.291 86.1002 119.57 86.0993 118.818V110.31C86.0993 109.558 86.3986 108.837 86.9313 108.305C87.464 107.773 88.1864 107.475 88.9398 107.475C89.6931 107.475 90.4156 107.773 90.9482 108.305C91.4809 108.837 91.7802 109.558 91.7802 110.31V118.818C91.7793 119.57 91.4798 120.291 90.9473 120.822C90.4148 121.354 89.6928 121.653 88.9398 121.654Z" fill="#506281"/>
<path d="M96.5142 121.654C95.7611 121.653 95.0392 121.354 94.5067 120.822C93.9742 120.291 93.6746 119.57 93.6738 118.818V110.31C93.6738 109.558 93.973 108.837 94.5057 108.305C95.0384 107.773 95.7609 107.475 96.5142 107.475C97.2675 107.475 97.99 107.773 98.5227 108.305C99.0553 108.837 99.3546 109.558 99.3546 110.31V118.818C99.3537 119.57 99.0542 120.291 98.5217 120.822C97.9892 121.354 97.2672 121.653 96.5142 121.654Z" fill="#506281"/>
<path d="M108.191 121.654C107.438 121.653 106.716 121.354 106.184 120.822C105.651 120.291 105.352 119.57 105.351 118.818V110.31C105.351 109.558 105.65 108.837 106.183 108.305C106.716 107.773 107.438 107.475 108.191 107.475C108.945 107.475 109.667 107.773 110.2 108.305C110.733 108.837 111.032 109.558 111.032 110.31V118.818C111.031 119.57 110.731 120.291 110.199 120.822C109.667 121.354 108.945 121.653 108.191 121.654Z" fill="#506281"/>
<path d="M115.766 121.654C115.013 121.653 114.291 121.354 113.758 120.822C113.226 120.291 112.926 119.57 112.925 118.818V110.31C112.925 109.558 113.225 108.837 113.757 108.305C114.29 107.773 115.013 107.475 115.766 107.475C116.519 107.475 117.242 107.773 117.774 108.305C118.307 108.837 118.606 109.558 118.606 110.31V118.818C118.605 119.57 118.306 120.291 117.773 120.822C117.241 121.354 116.519 121.653 115.766 121.654Z" fill="#506281"/>
<path d="M123.34 121.654C122.587 121.653 121.865 121.354 121.333 120.822C120.8 120.291 120.501 119.57 120.5 118.818V110.31C120.5 109.558 120.799 108.837 121.332 108.305C121.865 107.773 122.587 107.475 123.34 107.475C124.094 107.475 124.816 107.773 125.349 108.305C125.882 108.837 126.181 109.558 126.181 110.31V118.818C126.18 119.57 125.88 120.291 125.348 120.822C124.815 121.354 124.093 121.653 123.34 121.654Z" fill="#506281"/>
<path d="M135.018 121.654C134.265 121.653 133.543 121.354 133.01 120.822C132.478 120.291 132.178 119.57 132.177 118.818V110.31C132.177 109.558 132.476 108.837 133.009 108.305C133.542 107.773 134.264 107.475 135.018 107.475C135.771 107.475 136.493 107.773 137.026 108.305C137.559 108.837 137.858 109.558 137.858 110.31V118.818C137.857 119.57 137.558 120.291 137.025 120.822C136.493 121.354 135.771 121.653 135.018 121.654Z" fill="#506281"/>
<path d="M142.592 121.654C141.839 121.653 141.117 121.354 140.585 120.822C140.052 120.291 139.753 119.57 139.752 118.818V110.31C139.752 109.558 140.051 108.837 140.584 108.305C141.116 107.773 141.839 107.475 142.592 107.475C143.345 107.475 144.068 107.773 144.601 108.305C145.133 108.837 145.432 109.558 145.432 110.31V118.818C145.432 119.57 145.132 120.291 144.6 120.822C144.067 121.354 143.345 121.653 142.592 121.654Z" fill="#506281"/>
<path d="M150.167 121.654C149.413 121.653 148.691 121.354 148.159 120.822C147.627 120.291 147.327 119.57 147.326 118.818V110.31C147.326 109.558 147.625 108.837 148.158 108.305C148.691 107.773 149.413 107.475 150.167 107.475C150.92 107.475 151.642 107.773 152.175 108.305C152.708 108.837 153.007 109.558 153.007 110.31V118.818C153.006 119.57 152.707 120.291 152.174 120.822C151.642 121.354 150.92 121.653 150.167 121.654Z" fill="#506281"/>
<path d="M73.7966 153.216H32.945C32.4388 153.216 31.9533 153.015 31.5954 152.657C31.2375 152.3 31.0364 151.815 31.0364 151.31C31.0364 150.805 31.2375 150.32 31.5954 149.963C31.9533 149.605 32.4388 149.405 32.945 149.405H73.7966C74.3027 149.405 74.7882 149.605 75.1461 149.963C75.504 150.32 75.7051 150.805 75.7051 151.31C75.7051 151.815 75.504 152.3 75.1461 152.657C74.7882 153.015 74.3027 153.216 73.7966 153.216Z" fill="#E6E6E6"/>
<path d="M60.6991 145.023H46.0424C45.5363 145.023 45.0508 144.822 44.6929 144.465C44.335 144.108 44.1339 143.623 44.1339 143.118C44.1339 142.612 44.335 142.128 44.6929 141.77C45.0508 141.413 45.5363 141.212 46.0424 141.212H60.6991C61.2053 141.212 61.6907 141.413 62.0486 141.77C62.4066 142.128 62.6076 142.612 62.6076 143.118C62.6076 143.623 62.4066 144.108 62.0486 144.465C61.6907 144.822 61.2053 145.023 60.6991 145.023Z" fill="#E6E6E6"/>
<path d="M178.255 87.3087H22.6634V87.9389H178.255V87.3087Z" fill="#3F3D56"/>
</svg>
