<svg width="137" height="165" viewBox="0 0 137 165" fill="none" xmlns="http://www.w3.org/2000/svg">
<path d="M132.055 164.716H4.9448C3.63381 164.715 2.37694 164.191 1.44993 163.26C0.522922 162.33 0.00147584 161.068 0 159.751V4.96485C0.00147584 3.64855 0.522922 2.38658 1.44993 1.45581C2.37694 0.525038 3.63381 0.00148182 4.9448 0H132.055C133.366 0.00148182 134.623 0.525038 135.55 1.45581C136.477 2.38658 136.999 3.64855 137 4.96485V159.751C136.999 161.068 136.477 162.33 135.55 163.26C134.623 164.191 133.366 164.715 132.055 164.716ZM4.9448 0.5841C3.78805 0.585414 2.67905 1.04738 1.8611 1.86864C1.04315 2.68991 0.58305 3.80341 0.581741 4.96485V159.751C0.58305 160.913 1.04315 162.026 1.8611 162.848C2.67905 163.669 3.78805 164.131 4.9448 164.132H132.055C133.212 164.131 134.321 163.669 135.139 162.848C135.957 162.026 136.417 160.913 136.418 159.751V4.96485C136.417 3.80341 135.957 2.68991 135.139 1.86864C134.321 1.04738 133.212 0.585414 132.055 0.5841H4.9448Z" fill="#3F3D56"/>
<path d="M136.709 12.1465H0.290894V12.7306H136.709V12.1465Z" fill="#3F3D56"/>
<path d="M6.98089 8.7615C8.26604 8.7615 9.30786 7.71546 9.30786 6.4251C9.30786 5.13474 8.26604 4.0887 6.98089 4.0887C5.69575 4.0887 4.65393 5.13474 4.65393 6.4251C4.65393 7.71546 5.69575 8.7615 6.98089 8.7615Z" fill="#3F3D56"/>
<path d="M14.2527 8.7615C15.5378 8.7615 16.5796 7.71546 16.5796 6.4251C16.5796 5.13474 15.5378 4.0887 14.2527 4.0887C12.9675 4.0887 11.9257 5.13474 11.9257 6.4251C11.9257 7.71546 12.9675 8.7615 14.2527 8.7615Z" fill="#3F3D56"/>
<path d="M21.5244 8.7615C22.8096 8.7615 23.8514 7.71546 23.8514 6.4251C23.8514 5.13474 22.8096 4.0887 21.5244 4.0887C20.2393 4.0887 19.1974 5.13474 19.1974 6.4251C19.1974 7.71546 20.2393 8.7615 21.5244 8.7615Z" fill="#3F3D56"/>
<path d="M112.352 35.3381H21.6C20.5971 35.3381 19.6354 34.938 18.9262 34.226C18.2171 33.514 17.8187 32.5483 17.8187 31.5414C17.8187 30.5345 18.2171 29.5688 18.9262 28.8568C19.6354 28.1448 20.5971 27.7448 21.6 27.7448H112.352C113.354 27.7448 114.316 28.1448 115.025 28.8568C115.735 29.5688 116.133 30.5345 116.133 31.5414C116.133 32.5483 115.735 33.514 115.025 34.226C114.316 34.938 113.354 35.3381 112.352 35.3381ZM21.6 28.3289C20.7514 28.3289 19.9376 28.6673 19.3376 29.2698C18.7375 29.8723 18.4004 30.6894 18.4004 31.5414C18.4004 32.3934 18.7375 33.2105 19.3376 33.813C19.9376 34.4155 20.7514 34.754 21.6 34.754H112.352C113.2 34.754 114.014 34.4155 114.614 33.813C115.214 33.2105 115.551 32.3934 115.551 31.5414C115.551 30.6894 115.214 29.8723 114.614 29.2698C114.014 28.6673 113.2 28.3289 112.352 28.3289H21.6Z" fill="#3F3D56"/>
<path d="M55.5563 88.7832H19.7792C18.4682 88.7817 17.2114 88.2582 16.2843 87.3274C15.3573 86.3966 14.8359 85.1347 14.8344 83.8184V54.3213C14.8359 53.005 15.3573 51.743 16.2843 50.8123C17.2114 49.8815 18.4682 49.3579 19.7792 49.3565H55.5563C56.8673 49.3579 58.1241 49.8815 59.0511 50.8123C59.9782 51.743 60.4996 53.005 60.5011 54.3213V83.8184C60.4996 85.1347 59.9782 86.3966 59.0511 87.3274C58.1241 88.2582 56.8673 88.7817 55.5563 88.7832ZM19.7792 49.9406C18.6225 49.9419 17.5135 50.4038 16.6955 51.2251C15.8776 52.0464 15.4175 53.1599 15.4162 54.3213V83.8184C15.4175 84.9798 15.8776 86.0933 16.6955 86.9146C17.5135 87.7358 18.6225 88.1978 19.7792 88.1991H55.5563C56.713 88.1978 57.822 87.7358 58.64 86.9146C59.4579 86.0933 59.918 84.9798 59.9193 83.8184V54.3213C59.918 53.1599 59.4579 52.0464 58.64 51.2251C57.822 50.4038 56.713 49.9419 55.5563 49.9406H19.7792Z" fill="#3F3D56"/>
<path d="M117.221 50.8167H81.4437C78.8734 50.8167 76.7898 52.9088 76.7898 55.4895V84.9866C76.7898 87.5673 78.8734 89.6594 81.4437 89.6594H117.221C119.791 89.6594 121.875 87.5673 121.875 84.9866V55.4895C121.875 52.9088 119.791 50.8167 117.221 50.8167Z" fill="#F2F2F2"/>
<path d="M55.5563 143.689H19.7792C18.4682 143.687 17.2114 143.164 16.2843 142.233C15.3573 141.302 14.8359 140.04 14.8344 138.724V109.227C14.8359 107.91 15.3573 106.648 16.2843 105.718C17.2114 104.787 18.4682 104.263 19.7792 104.262H55.5563C56.8673 104.263 58.1241 104.787 59.0511 105.718C59.9782 106.648 60.4996 107.91 60.5011 109.227V138.724C60.4996 140.04 59.9782 141.302 59.0511 142.233C58.1241 143.164 56.8673 143.687 55.5563 143.689ZM19.7792 104.846C18.6225 104.847 17.5135 105.309 16.6955 106.131C15.8776 106.952 15.4175 108.065 15.4162 109.227V138.724C15.4175 139.885 15.8776 140.999 16.6955 141.82C17.5135 142.641 18.6225 143.103 19.7792 143.105H55.5563C56.713 143.103 57.822 142.641 58.64 141.82C59.4579 140.999 59.918 139.885 59.9193 138.724V109.227C59.918 108.065 59.4579 106.952 58.64 106.131C57.822 105.309 56.713 104.847 55.5563 104.846H19.7792Z" fill="#3F3D56"/>
<path d="M117.221 105.722H81.4437C78.8734 105.722 76.7898 107.814 76.7898 110.395V139.892C76.7898 142.473 78.8734 144.565 81.4437 144.565H117.221C119.791 144.565 121.875 142.473 121.875 139.892V110.395C121.875 107.814 119.791 105.722 117.221 105.722Z" fill="#F2F2F2"/>
<path d="M28.7647 81.6492C28.7583 81.6492 28.7518 81.6491 28.7453 81.6488L24.676 81.4975C24.5491 81.4937 24.4279 81.4438 24.3347 81.3573C24.2416 81.2707 24.1827 81.1532 24.1691 81.0265C23.889 78.5174 22.7364 65.7315 27.565 60.4173C28.2485 59.65 29.0934 59.045 30.0387 58.6464C30.9839 58.2477 32.0057 58.0653 33.0298 58.1124C33.0715 58.115 33.113 58.1062 33.15 58.0869C33.1869 58.0675 33.2179 58.0384 33.2396 58.0026L34.2247 56.4482C34.2786 56.364 34.355 56.2966 34.4451 56.2537C34.5352 56.2108 34.6354 56.1941 34.7345 56.2055C35.5243 56.3013 39.5503 56.7537 41.2432 56.2616C41.343 56.232 41.4493 56.2326 41.5488 56.2634C41.6483 56.2941 41.7366 56.3536 41.8026 56.4344L43.0963 58.0218C43.1185 58.0506 43.1472 58.0735 43.18 58.0888C43.2129 58.1041 43.2489 58.1113 43.2851 58.1097C43.943 58.0964 46.2501 58.2243 48.2692 60.4919C50.4555 62.9472 52.7119 68.487 51.0451 80.9342C51.0276 81.0621 50.9648 81.1793 50.8681 81.2643C50.7714 81.3494 50.6474 81.3965 50.5189 81.397H47.3139C47.1867 81.3964 47.0639 81.3501 46.9676 81.2665C46.8714 81.1829 46.8082 81.0675 46.7893 80.9412L45.7424 73.6879C45.7338 73.6282 45.7032 73.574 45.6566 73.536C45.61 73.498 45.551 73.479 45.4911 73.4827C45.4312 73.4864 45.3748 73.5125 45.3333 73.556C45.2917 73.5995 45.2679 73.657 45.2667 73.7172L45.1945 77.1227C45.1923 77.2238 45.1614 77.3221 45.1057 77.4062C45.0499 77.4903 44.9715 77.5568 44.8796 77.5979C43.737 78.1023 37.7 80.4679 31.0276 77.5051C30.9374 77.4643 30.8602 77.3993 30.8046 77.3171C30.749 77.2349 30.7171 77.1388 30.7127 77.0396L30.5815 73.9454C30.579 73.885 30.5538 73.8278 30.511 73.7852C30.4683 73.7426 30.4111 73.7178 30.3509 73.7157C30.2907 73.7136 30.232 73.7343 30.1864 73.7738C30.1408 73.8133 30.1117 73.8686 30.105 73.9287L29.2916 81.1766C29.2764 81.3064 29.2145 81.4262 29.1174 81.5133C29.0204 81.6003 28.8949 81.6487 28.7647 81.6492Z" fill="#506281"/>
<path d="M45.5986 135.084H45.5955L29.6496 134.983C29.5337 134.982 29.422 134.939 29.3356 134.861C29.2492 134.784 29.194 134.677 29.1803 134.561L27.5763 120.872C27.5665 120.784 27.5253 120.702 27.4602 120.642C27.3951 120.582 27.3106 120.547 27.2221 120.544C25.9562 120.503 22.9444 120.213 22.3202 118.423C21.7644 116.829 23.2847 114.478 26.839 111.434C26.8995 111.382 26.9719 111.346 27.0497 111.33C27.1276 111.313 27.2083 111.316 27.2845 111.339C27.3608 111.362 27.4301 111.404 27.4862 111.46C27.5423 111.517 27.5834 111.587 27.6056 111.664L29.4507 118.055C29.4733 118.132 29.5197 118.199 29.5832 118.248C29.6467 118.296 29.7239 118.322 29.8036 118.323L44.9227 118.425C45.0019 118.426 45.0793 118.401 45.1433 118.354C45.2073 118.307 45.2545 118.241 45.278 118.165L47.3311 111.606C47.3539 111.533 47.394 111.466 47.4479 111.412C47.5018 111.358 47.568 111.317 47.6408 111.294C47.7136 111.271 47.7909 111.265 47.8662 111.279C47.9414 111.292 48.0124 111.323 48.0731 111.37C49.474 112.444 53.987 116.132 53.2442 118.491C52.8552 119.726 51.1005 120.415 48.0288 120.538C47.9406 120.541 47.8565 120.576 47.7916 120.636C47.7268 120.696 47.6857 120.777 47.6757 120.865L46.0709 134.662C46.0575 134.779 46.002 134.886 45.9149 134.964C45.8278 135.042 45.7152 135.085 45.5986 135.084Z" fill="#506281"/>
<path d="M115.476 77.438C110.465 78.4066 105.739 80.5078 101.658 83.5825C101.451 83.0308 101.062 82.567 100.556 82.2687C100.21 82.0534 99.8329 81.8942 99.4377 81.7969C99.0783 81.7049 98.733 81.9243 98.4159 82.2404C98.051 82.6457 97.745 83.1007 97.5067 83.5919C92.0308 79.818 83.7241 77.4097 83.7241 77.4097V76.6549C83.7308 76.4771 83.7489 76.2998 83.7782 76.1242C83.8064 75.9214 83.8416 75.7421 83.8862 75.5228C84.591 71.9234 87.3771 63.6986 87.3771 63.6986H90.5273L96.6352 64.9723L103.507 64.5501L110.427 63.1042L111.325 62.9155C112.821 64.0949 114.519 72.3503 115.187 75.8648C115.271 76.3106 115.337 76.6785 115.386 76.9498C115.445 77.2564 115.476 77.438 115.476 77.438Z" fill="white"/>
<path d="M96.6785 113.671C96.6785 113.671 95.2152 114.039 92.9459 120.21C90.6766 126.381 89.8727 134.355 89.8727 134.355C89.8727 134.355 88.5966 136.525 94.0434 136.67C94.0434 136.67 93.6052 138.103 96.6785 137.883C99.7517 137.663 99.3093 137.665 99.3093 137.665C99.3093 137.665 101.285 136.416 102.163 136.636C103.042 136.856 103.591 136.93 104.541 137.738C105.492 138.545 108.531 138.216 108.567 137.592C108.592 137.286 108.592 136.978 108.567 136.672C108.567 136.672 113.214 136.967 112.336 133.586C111.458 130.206 110.726 124.658 110.726 124.658C110.726 124.658 108.348 113.821 105.639 113.674C102.929 113.526 96.6785 113.671 96.6785 113.671Z" fill="white"/>
</svg>
