<svg width="301" height="132" viewBox="0 0 301 132" fill="none" xmlns="http://www.w3.org/2000/svg">
<g clip-path="url(#clip0)">
<path d="M89.5483 108.685C88.5135 116.764 84.7084 124.156 80.649 131.276C80.5148 131.519 80.3766 131.758 80.2352 132H38.0443C37.191 131.779 36.3487 131.537 35.5099 131.276C30.7446 129.831 26.2458 127.625 22.1882 124.746C6.66623 113.602 0.693363 92.5442 3.39118 73.6757C5.06869 61.9529 10.2317 49.9841 20.2856 43.6705C25.594 40.331 32.4127 39.2455 38.5235 40.4865C38.6834 40.5155 38.8431 40.5517 39.0064 40.5842C44.2639 41.7637 48.9477 44.6944 51.6129 49.4161C56.4056 57.9006 53.5518 68.4113 51.1954 77.8546C48.8462 87.2979 47.5716 98.601 54.3905 105.566C52.1393 98.9628 54.3614 91.0861 59.7388 86.6213C63.8017 83.2529 69.4587 81.9901 74.6181 83.0358C75.1119 83.1407 75.5985 83.2601 76.0778 83.4048C77.2361 83.7429 78.3528 84.2089 79.4072 84.7942C87.4496 89.2698 90.7066 99.5779 89.5483 108.685Z" fill="#F2F2F2"/>
<path d="M64.5317 131.276C65.7007 131.548 66.8735 131.786 68.0535 132H61.6741C60.8389 131.776 60.0074 131.537 59.1834 131.276C57.3715 130.712 55.5875 130.064 53.8314 129.333C46.7875 126.388 40.2991 121.967 35.3901 116.084C32.9893 113.234 31.0289 110.042 29.5735 106.615C27.9953 102.742 26.9924 98.6598 26.5963 94.498C25.7066 85.9592 26.6143 77.1853 28.3099 68.7984C30.0598 60.1059 32.8844 51.6631 36.7191 43.6633C37.1802 42.7045 37.6571 41.7517 38.1497 40.8049C38.1835 40.727 38.2348 40.6578 38.2996 40.6026C38.3644 40.5474 38.441 40.5077 38.5236 40.4865C38.6912 40.4542 38.8648 40.4893 39.0065 40.5842C39.1765 40.6814 39.3026 40.84 39.3587 41.0272C39.4148 41.2144 39.3966 41.4159 39.3079 41.5901C35.3541 49.2735 32.357 57.4094 30.3832 65.8171C28.4516 74.0194 27.3551 82.6016 27.729 91.0355C28.0848 98.9158 30.1509 106.666 34.8383 113.11C39.1191 118.993 45.0301 123.631 51.5694 126.79C55.7084 128.763 60.0563 130.268 64.5317 131.276Z" fill="white"/>
<path d="M78.5323 132H76.6515C76.4408 131.761 76.2375 131.519 76.0379 131.276C71.7538 126.089 68.8516 119.91 67.5996 113.309C66.0792 105.071 67.262 96.5645 70.9727 89.0491C72.008 86.9418 73.2278 84.9295 74.6181 83.0358C75.1118 83.1407 75.5985 83.2601 76.0777 83.4048C72.4209 88.2328 69.9613 93.8539 68.8995 99.8095C67.9523 105.39 68.2672 111.111 69.8213 116.555C71.3753 121.999 74.1294 127.028 77.8824 131.276C78.0928 131.519 78.3107 131.761 78.5323 132Z" fill="white"/>
<path d="M247.963 125.847C248.237 127.979 249.241 129.93 250.312 131.809C250.348 131.873 250.384 131.936 250.421 132H261.556C261.782 131.942 262.004 131.878 262.225 131.809C263.483 131.427 264.67 130.845 265.741 130.085C269.838 127.144 271.414 121.587 270.702 116.607C270.259 113.513 268.897 110.355 266.243 108.688C264.802 107.814 263.083 107.514 261.43 107.848C261.388 107.856 261.346 107.865 261.302 107.874C260.614 108.006 259.962 108.283 259.388 108.684C258.815 109.086 258.333 109.604 257.975 110.205C256.71 112.444 257.464 115.218 258.086 117.71C258.706 120.202 259.042 123.185 257.242 125.024C257.506 124.255 257.56 123.43 257.397 122.634C257.235 121.838 256.863 121.099 256.32 120.493C255.776 119.888 255.081 119.438 254.304 119.189C253.528 118.94 252.7 118.901 251.904 119.077C251.774 119.105 251.645 119.137 251.519 119.175C251.213 119.264 250.918 119.387 250.64 119.542C248.517 120.723 247.658 123.443 247.963 125.847Z" fill="#F2F2F2"/>
<path d="M254.566 131.809C254.257 131.881 253.948 131.944 253.636 132H255.32C255.54 131.941 255.76 131.878 255.977 131.809C256.456 131.66 256.926 131.489 257.39 131.296C259.27 130.536 260.939 129.336 262.257 127.799C262.89 127.047 263.408 126.205 263.792 125.3C264.209 124.278 264.473 123.201 264.578 122.103C264.769 119.832 264.616 117.545 264.125 115.32C263.664 113.026 262.918 110.798 261.906 108.686C261.784 108.433 261.659 108.182 261.529 107.932C261.52 107.911 261.506 107.893 261.489 107.879C261.472 107.864 261.452 107.854 261.43 107.848C261.386 107.839 261.34 107.849 261.302 107.874C261.258 107.899 261.224 107.941 261.209 107.991C261.195 108.04 261.199 108.093 261.223 108.139C262.266 110.167 263.057 112.314 263.578 114.533C264.115 116.71 264.35 118.949 264.279 121.189C264.24 123.272 263.588 125.298 262.403 127.015C261.25 128.56 259.733 129.8 257.987 130.625C256.895 131.146 255.747 131.543 254.566 131.809Z" fill="white"/>
<path d="M250.871 132H251.367C251.423 131.937 251.476 131.873 251.529 131.809C252.66 130.44 253.426 128.809 253.756 127.067C254.157 124.893 253.845 122.648 252.866 120.664C252.593 120.108 252.271 119.577 251.904 119.077C251.774 119.105 251.645 119.137 251.519 119.175C252.484 120.449 253.133 121.933 253.413 123.504C253.663 124.977 253.58 126.487 253.17 127.924C252.76 129.36 252.033 130.688 251.042 131.809C250.987 131.873 250.929 131.937 250.871 132Z" fill="white"/>
<path d="M147.599 76.8883H112.749L112.38 66.2109C112.364 65.7481 112.449 65.2873 112.629 64.8602C112.808 64.4332 113.079 64.05 113.422 63.7372C113.764 63.4243 114.171 63.1892 114.614 63.0479C115.056 62.9067 115.524 62.8627 115.986 62.9189L136.266 65.3935H136.268C139.275 65.4016 142.156 66.5969 144.279 68.7176C146.403 70.8383 147.597 73.7114 147.599 76.7074V76.8883Z" fill="#506281"/>
<path d="M132.066 39.014H107.76C107.437 39.0139 107.117 39.0773 106.818 39.2005C106.52 39.3237 106.248 39.5044 106.02 39.7322C105.791 39.9599 105.61 40.2304 105.486 40.528C105.363 40.8256 105.299 41.1446 105.299 41.4667V65.6872C105.299 66.0094 105.363 66.3283 105.486 66.626C105.61 66.9236 105.791 67.194 106.02 67.4218C106.248 67.6495 106.52 67.8302 106.818 67.9534C107.117 68.0767 107.437 68.14 107.76 68.14H132.066C132.39 68.14 132.71 68.0767 133.008 67.9534C133.307 67.8302 133.578 67.6495 133.807 67.4218C134.036 67.194 134.217 66.9236 134.341 66.626C134.464 66.3283 134.528 66.0094 134.528 65.6872V41.4667C134.528 41.1446 134.464 40.8256 134.341 40.528C134.217 40.2304 134.036 39.9599 133.807 39.7322C133.578 39.5044 133.307 39.3237 133.008 39.2005C132.71 39.0773 132.39 39.0139 132.066 39.014Z" fill="#CCCCCC"/>
<path d="M126.592 57.1252L115.116 59.3521C114.436 59.4834 113.731 59.3403 113.156 58.9541C112.581 58.568 112.183 57.9703 112.05 57.2923L111.167 52.7782C111.036 52.0999 111.179 51.3972 111.567 50.8243C111.954 50.2513 112.554 49.855 113.235 49.7221L124.71 47.4952C125.391 47.3639 126.096 47.507 126.671 47.8932C127.246 48.2794 127.644 48.877 127.777 49.5551L128.659 54.0691C128.791 54.7474 128.648 55.4501 128.26 56.0231C127.872 56.596 127.273 56.9924 126.592 57.1252Z" fill="#3F3D56"/>
<path d="M124.296 51.7923L115.538 53.4918C115.378 53.5228 115.212 53.4893 115.077 53.3984C114.942 53.3075 114.848 53.1667 114.817 53.0071C114.786 52.8475 114.819 52.682 114.911 52.5472C115.002 52.4123 115.143 52.3191 115.303 52.288L124.061 50.5885C124.221 50.5574 124.387 50.591 124.523 50.6819C124.658 50.7728 124.751 50.9136 124.783 51.0732C124.814 51.2328 124.78 51.3983 124.689 51.5331C124.598 51.668 124.456 51.7612 124.296 51.7923Z" fill="white"/>
<path d="M122.594 54.3091L118.064 55.1881C117.904 55.2192 117.738 55.1856 117.603 55.0947C117.467 55.0038 117.374 54.8631 117.342 54.7034C117.311 54.5438 117.345 54.3784 117.436 54.2435C117.527 54.1087 117.669 54.0154 117.829 53.9844L122.359 53.1053C122.438 53.0899 122.52 53.0902 122.599 53.1063C122.678 53.1223 122.753 53.1537 122.82 53.1987C122.887 53.2437 122.945 53.3014 122.989 53.3686C123.034 53.4357 123.065 53.5109 123.08 53.59C123.096 53.669 123.096 53.7503 123.079 53.8292C123.063 53.9081 123.032 53.9831 122.987 54.0499C122.941 54.1167 122.884 54.1739 122.816 54.2184C122.749 54.2628 122.673 54.2937 122.594 54.3091Z" fill="white"/>
<path d="M134.528 41.4667V44.6859H105.299V41.4667C105.299 41.1446 105.363 40.8256 105.486 40.528C105.61 40.2304 105.791 39.9599 106.02 39.7322C106.248 39.5044 106.52 39.3237 106.818 39.2005C107.117 39.0773 107.437 39.0139 107.76 39.014H132.066C132.39 39.0139 132.71 39.0773 133.008 39.2005C133.307 39.3237 133.578 39.5044 133.807 39.7322C134.036 39.9599 134.217 40.2304 134.34 40.528C134.464 40.8256 134.528 41.1446 134.528 41.4667Z" fill="#B3B3B3"/>
<path d="M192.894 45.694C192.726 45.1512 192.44 44.6519 192.056 44.2312C191.673 43.8105 191.202 43.4787 190.676 43.2592C190.15 43.0396 189.582 42.9377 189.012 42.9604C188.442 42.9832 187.884 43.1302 187.378 43.3911L153.939 31.4358L152.466 39.7601L185.799 48.8943C186.295 49.7133 187.075 50.3224 187.992 50.6064C188.909 50.8903 189.898 50.8292 190.773 50.4348C191.648 50.0403 192.347 49.3398 192.738 48.466C193.129 47.5923 193.184 46.606 192.894 45.694Z" fill="#FFB8B8"/>
<path opacity="0.2" d="M192.894 45.694C192.726 45.1512 192.44 44.6519 192.056 44.2312C191.673 43.8105 191.202 43.4787 190.676 43.2592C190.15 43.0396 189.582 42.9377 189.012 42.9604C188.442 42.9832 187.884 43.1302 187.378 43.3911L153.939 31.4358L152.466 39.7601L185.799 48.8943C186.295 49.7133 187.075 50.3224 187.992 50.6064C188.909 50.8903 189.898 50.8292 190.773 50.4348C191.648 50.0403 192.347 49.3398 192.738 48.466C193.129 47.5923 193.184 46.606 192.894 45.694Z" fill="black"/>
<path d="M159.874 32.9526L156.716 41.1731C156.626 41.407 156.487 41.6189 156.308 41.7943C156.128 41.9696 155.913 42.1044 155.677 42.1894C155.44 42.2744 155.188 42.3077 154.938 42.2869C154.687 42.2661 154.444 42.1917 154.225 42.0689L146.551 37.7647C145.353 37.2998 144.388 36.3804 143.869 35.2081C143.35 34.0358 143.319 32.7063 143.782 31.511C144.245 30.3157 145.165 29.3522 146.34 28.8317C147.515 28.3112 148.849 28.2762 150.05 28.7343L158.62 30.6283C158.865 30.6826 159.096 30.789 159.296 30.9401C159.497 31.0913 159.662 31.2837 159.781 31.5043C159.9 31.7249 159.97 31.9684 159.986 32.2184C160.002 32.4683 159.964 32.7188 159.874 32.9526Z" fill="#506281"/>
<path d="M195.526 53.3056L183.545 58.7328L185.118 64.6343C188.155 76.0306 188.962 87.9034 187.492 99.6035L196.253 101.427L203.514 82.9743L200.973 61.9891L195.526 53.3056Z" fill="#506281"/>
<path d="M219.036 80.6225C211.164 80.6225 204.748 86.3254 204.437 93.4669H233.636C233.324 86.3254 226.909 80.6225 219.036 80.6225Z" fill="#3F3D56"/>
<path d="M212.908 81.8532C212.498 49.6163 194.074 52.582 194.074 52.582C194.074 52.582 194.419 62.6163 194.584 62.9283C206.325 85.0639 186.949 111.015 162.284 106.241C161.819 106.151 161.372 106.059 160.944 105.967C157.819 105.316 155.059 103.504 153.227 100.899C151.395 98.2938 150.628 95.0908 151.081 91.9417C153.511 72.4995 141.426 72.8435 141.426 72.8435H123.756L114.58 64.6138C114.256 64.3233 113.865 64.1163 113.443 64.0109C113.02 63.9055 112.578 63.9049 112.155 64.0092C111.732 64.1134 111.341 64.3194 111.016 64.609C110.691 64.8986 110.443 65.2631 110.292 65.6706L109.112 68.8636C109.112 68.8636 91.6833 70.6727 93.1357 87.6779H98.5238C98.5108 88.161 98.5302 88.6445 98.582 89.1251L138.794 88.7993C141.151 88.7802 143.232 90.6835 143.242 93.0324C143.244 93.6043 143.131 94.1708 142.908 94.698C142.686 95.2252 142.359 95.7022 141.948 96.1007C141.536 96.4991 141.048 96.8107 140.513 97.0169C139.977 97.223 139.406 97.3194 138.832 97.3004L132.349 97.085C130.352 105.949 135.254 111.919 140.655 115.673C145.74 119.156 151.774 121.003 157.944 120.965H175.557C198.431 120.965 202.425 101.789 202.425 101.789C214.407 96.7232 212.908 81.8532 212.908 81.8532Z" fill="#3F3D56"/>
<path d="M217.947 131.457C229.227 131.457 238.371 122.345 238.371 111.105C238.371 99.8652 229.227 90.7533 217.947 90.7533C206.667 90.7533 197.523 99.8652 197.523 111.105C197.523 122.345 206.667 131.457 217.947 131.457Z" fill="#3F3D56"/>
<path d="M217.947 116.093C220.712 116.093 222.953 113.86 222.953 111.105C222.953 108.35 220.712 106.117 217.947 106.117C215.183 106.117 212.941 108.35 212.941 111.105C212.941 113.86 215.183 116.093 217.947 116.093Z" fill="white"/>
<path d="M114.83 131.457C127.814 131.457 138.34 120.968 138.34 108.03C138.34 95.0913 127.814 84.6025 114.83 84.6025C101.846 84.6025 91.3202 95.0913 91.3202 108.03C91.3202 120.968 101.846 131.457 114.83 131.457Z" fill="#3F3D56"/>
<path d="M114.83 113.772C118.013 113.772 120.592 111.201 120.592 108.03C120.592 104.859 118.013 102.288 114.83 102.288C111.648 102.288 109.068 104.859 109.068 108.03C109.068 111.201 111.648 113.772 114.83 113.772Z" fill="white"/>
<path d="M183.579 60.3364L179.267 48.6681C179.043 48.06 178.941 47.4137 178.966 46.7662C178.992 46.1187 179.146 45.4826 179.419 44.8943C179.691 44.306 180.078 43.7769 180.556 43.3374C181.033 42.8978 181.593 42.5564 182.204 42.3325L194.563 37.7985C195.637 37.4045 196.778 37.2251 197.921 37.2705C199.065 37.316 200.188 37.5854 201.227 38.0634C202.266 38.5414 203.2 39.2186 203.976 40.0564C204.752 40.8941 205.355 41.876 205.751 42.946C206.107 43.9064 206.289 44.9224 206.288 45.9464C206.284 47.2466 205.989 48.5294 205.424 49.7016C204.86 50.8739 204.04 51.9061 203.025 52.7231C202.292 53.3092 201.468 53.7723 200.585 54.0941L183.579 60.3364Z" fill="#3F3D56"/>
<path d="M206.107 45.9463C206.106 47.22 205.818 48.4773 205.265 49.6257C204.712 50.774 203.908 51.7842 202.912 52.5819C201.383 52.1801 199.96 51.4513 198.743 50.4462C197.525 49.4412 196.542 48.1839 195.861 46.7619C195.18 45.3398 194.819 43.7871 194.801 42.2117C194.783 40.6363 195.11 39.0759 195.759 37.6391C197.004 37.3692 198.294 37.3807 199.535 37.6727C200.775 37.9647 201.934 38.5299 202.927 39.3266C203.919 40.1234 204.72 41.1315 205.27 42.277C205.821 43.4225 206.106 44.6763 206.107 45.9463Z" fill="#506281"/>
<path d="M96.2218 90.0296C99.0292 90.0296 101.305 87.2758 101.305 83.8788C101.305 80.4818 99.0292 77.728 96.2218 77.728C93.4145 77.728 91.1386 80.4818 91.1386 83.8788C91.1386 87.2758 93.4145 90.0296 96.2218 90.0296Z" fill="#506281"/>
<path d="M163.415 105.651H167.867L169.985 94.1467L163.415 94.1471L163.415 105.651Z" fill="#FFB8B8"/>
<path d="M162.28 104.203L171.046 104.203H171.047C171.78 104.203 172.507 104.347 173.184 104.626C173.862 104.906 174.478 105.316 174.997 105.833C175.516 106.35 175.927 106.964 176.208 107.639C176.489 108.315 176.633 109.039 176.633 109.77V109.951L162.28 109.951L162.28 104.203Z" fill="#2F2E41"/>
<path d="M168.582 100.929C168.53 100.929 168.478 100.927 168.426 100.922L162.266 100.475C162.017 100.452 161.776 100.372 161.563 100.242C161.35 100.112 161.169 99.9343 161.035 99.7235C160.902 99.5127 160.819 99.2742 160.792 99.0263C160.766 98.7783 160.797 98.5277 160.883 98.2936L169.127 79.8358C169.186 79.6712 169.21 79.4963 169.198 79.322C169.186 79.1478 169.137 78.9779 169.056 78.8231C168.975 78.6666 168.861 78.5289 168.723 78.4191C168.584 78.3094 168.424 78.2301 168.253 78.1864C164.376 77.1766 154.429 74.4878 145.819 71.3417C142.13 69.9937 139.807 68.0458 138.914 65.5519C137.736 62.2642 139.478 59.2658 139.553 59.14L139.611 59.0414L147.713 59.7753L156.497 60.5198L175.746 70.8053C177.358 71.6745 178.584 73.1171 179.177 74.846C179.77 76.5748 179.688 78.463 178.947 80.1344L170.073 99.9645C169.945 100.252 169.736 100.496 169.471 100.667C169.207 100.838 168.898 100.929 168.582 100.929Z" fill="#2F2E41"/>
<path d="M149.122 23.2578C154.047 23.2578 158.04 19.2792 158.04 14.3713C158.04 9.46341 154.047 5.48479 149.122 5.48479C144.197 5.48479 140.204 9.46341 140.204 14.3713C140.204 19.2792 144.197 23.2578 149.122 23.2578Z" fill="#FFB8B8"/>
<path d="M160.874 106.737H165.325L167.443 95.2322L160.873 95.2325L160.874 106.737Z" fill="#FFB8B8"/>
<path d="M159.738 105.289L168.505 105.288H168.505C169.239 105.288 169.965 105.432 170.643 105.712C171.321 105.992 171.937 106.402 172.455 106.919C172.974 107.436 173.386 108.049 173.666 108.725C173.947 109.4 174.092 110.124 174.092 110.855V111.036L159.739 111.037L159.738 105.289Z" fill="#2F2E41"/>
<path d="M166.041 102.015C165.989 102.015 165.937 102.012 165.884 102.007L159.724 101.561C159.475 101.537 159.235 101.458 159.021 101.327C158.808 101.197 158.627 101.02 158.494 100.809C158.36 100.598 158.277 100.36 158.25 100.112C158.224 99.8638 158.255 99.6131 158.341 99.379L166.585 80.9213C166.644 80.7567 166.668 80.5818 166.656 80.4075C166.644 80.2332 166.596 80.0634 166.514 79.9086C166.433 79.752 166.32 79.6143 166.181 79.5046C166.043 79.3949 165.883 79.3156 165.711 79.2719C161.835 78.2621 151.888 75.5732 143.277 72.4271C139.589 71.0792 137.265 69.1312 136.372 66.6374C135.194 63.3496 136.936 60.3513 137.011 60.2255L137.07 60.1269L145.172 60.8608L153.955 61.6052L173.204 71.8908C174.817 72.7599 176.042 74.2026 176.635 75.9314C177.229 77.6603 177.147 79.5485 176.406 81.2198L167.532 101.05C167.403 101.337 167.194 101.581 166.929 101.752C166.665 101.924 166.356 102.015 166.041 102.015Z" fill="#2F2E41"/>
<path d="M151.873 28.2968L142.432 25.0405C142.432 25.0405 136.506 29.5776 139.353 40.8331C140.839 46.6414 140.406 52.7724 138.118 58.316C137.843 59.0019 137.525 59.6703 137.167 60.3173C137.167 60.3173 147.697 72.9808 157.5 63.5736L153.688 45.3021C153.688 45.3021 159.679 33.1813 151.873 28.2968Z" fill="#506281"/>
<path d="M150.229 23.56C148.96 21.6669 147.959 19.0419 149.356 17.2406C150.735 15.4626 153.456 15.7246 155.569 14.9378C158.511 13.842 160.218 10.3973 159.685 7.31235C159.153 4.22741 156.668 1.67008 153.707 0.623707C150.747 -0.422668 147.408 -0.0823626 144.509 1.1226C140.94 2.60593 137.879 5.47532 136.595 9.11009C135.311 12.7449 135.998 17.1091 138.661 19.9028C141.516 22.8981 145.997 23.6963 150.143 23.6479" fill="#2F2E41"/>
<path d="M141.934 7.41137C140.335 8.70879 137.895 8.13253 136.178 6.99388C134.461 5.85524 133.068 4.23388 131.21 3.34114C127.936 1.76727 123.976 2.81353 120.789 4.55687C117.602 6.30021 114.777 8.70867 111.41 10.0768C108.043 11.4448 103.747 11.5124 101.198 8.92921C100.571 10.7404 100.52 12.7003 101.051 14.5416C101.583 16.3829 102.672 18.0159 104.17 19.2177C105.667 20.4195 107.5 21.1317 109.419 21.257C111.338 21.3824 113.248 20.9148 114.89 19.918C118.579 17.679 120.617 12.9843 124.754 11.7485C127.043 11.0647 129.502 11.6154 131.816 12.212C134.13 12.8086 136.542 13.4532 138.877 12.9453C141.213 12.4375 143.397 10.3464 143.1 7.98314L141.934 7.41137Z" fill="#2F2E41"/>
<path d="M192.451 45.332C192.216 44.8141 191.87 44.3538 191.438 43.9835C191.005 43.6132 190.496 43.3418 189.947 43.1886C189.398 43.0354 188.822 43.004 188.26 43.0967C187.697 43.1894 187.162 43.4038 186.691 43.725L152.027 35.9724L151.596 44.4142L185.805 49.3803C186.399 50.132 187.249 50.6406 188.194 50.8096C189.139 50.9786 190.113 50.7964 190.932 50.2974C191.752 49.7984 192.359 49.0173 192.638 48.1022C192.918 47.187 192.851 46.2014 192.451 45.332Z" fill="#FFB8B8"/>
<path d="M158.105 36.7479L155.989 45.2938C155.929 45.5369 155.817 45.7643 155.661 45.9604C155.504 46.1565 155.307 46.3167 155.083 46.4301C154.859 46.5436 154.613 46.6075 154.362 46.6177C154.111 46.6279 153.861 46.584 153.628 46.489L145.479 43.1612C144.232 42.8479 143.16 42.0543 142.499 40.9545C141.839 39.8547 141.642 38.5385 141.954 37.2948C142.266 36.0512 143.06 34.9815 144.162 34.3206C145.265 33.6597 146.585 33.4616 147.834 33.7696L156.573 34.5955C156.823 34.6192 157.065 34.6964 157.282 34.8218C157.5 34.9471 157.688 35.1178 157.833 35.322C157.979 35.5263 158.078 35.7594 158.125 36.0054C158.172 36.2515 158.165 36.5047 158.105 36.7479V36.7479Z" fill="#506281"/>
<path d="M188.446 52.0392C189.85 52.0392 190.988 50.9053 190.988 49.5066C190.988 48.1078 189.85 46.9739 188.446 46.9739C187.043 46.9739 185.905 48.1078 185.905 49.5066C185.905 50.9053 187.043 52.0392 188.446 52.0392Z" fill="#506281"/>
</g>
<defs>
<clipPath id="clip0">
<rect width="301" height="132" fill="white"/>
</clipPath>
</defs>
</svg>
