<svg width="17" height="20" viewBox="0 0 17 20" fill="none" xmlns="http://www.w3.org/2000/svg">
<path d="M8.5 9.75C9.62717 9.75 10.7082 9.23639 11.5052 8.32215C12.3022 7.40791 12.75 6.16793 12.75 4.875C12.75 3.58207 12.3022 2.34209 11.5052 1.42785C10.7082 0.513615 9.62717 0 8.5 0C7.37283 0 6.29183 0.513615 5.4948 1.42785C4.69777 2.34209 4.25 3.58207 4.25 4.875C4.25 6.16793 4.69777 7.40791 5.4948 8.32215C6.29183 9.23639 7.37283 9.75 8.5 9.75V9.75ZM11.3333 4.875C11.3333 5.73695 11.0348 6.5636 10.5035 7.1731C9.97212 7.78259 9.25145 8.125 8.5 8.125C7.74855 8.125 7.02788 7.78259 6.49653 7.1731C5.96518 6.5636 5.66667 5.73695 5.66667 4.875C5.66667 4.01305 5.96518 3.1864 6.49653 2.5769C7.02788 1.96741 7.74855 1.625 8.5 1.625C9.25145 1.625 9.97212 1.96741 10.5035 2.5769C11.0348 3.1864 11.3333 4.01305 11.3333 4.875V4.875ZM17 17.875C17 19.5 15.5833 19.5 15.5833 19.5H1.41667C1.41667 19.5 0 19.5 0 17.875C0 16.25 1.41667 11.375 8.5 11.375C15.5833 11.375 17 16.25 17 17.875ZM15.5833 17.8685C15.5819 17.4688 15.3652 16.2662 14.4047 15.1645C13.481 14.105 11.7427 13 8.5 13C5.25583 13 3.519 14.105 2.59533 15.1645C1.63483 16.2662 1.4195 17.4688 1.41667 17.8685H15.5833Z" fill="black"/>
</svg>
